<?xml version="1.0" encoding="UTF-8"?>
<svg xmlns="http://www.w3.org/2000/svg" version="1.1" viewBox="0 0 56.1 56.1">
  <defs>
    <style>
      .cls-1 {
        stroke-width: 3px;
      }

      .cls-1, .cls-2 {
        fill: none;
      }

      .cls-1, .cls-2, .cls-3 {
        stroke: #30408c;
        stroke-miterlimit: 10;
      }

      .cls-3 {
        fill: #30408c;
      }
    </style>
  </defs>
  <!-- Generator: Adobe Illustrator 28.7.0, SVG Export Plug-In . SVG Version: 1.2.0 Build 136)  -->
  <g>
    <g id="Layer_1">
      <g>
        <path class="cls-3" d="M45.9,45c-.4.4-.8.8-1.2,1.2-3.2,3-7.2,5.1-11.6,6-1.6.3-3.3.5-5.1.5s-3.5-.2-5.1-.5c-4.4-.9-8.4-3-11.6-6-.4-.4-.8-.8-1.2-1.2,2.5-5.5,7.4-9.7,13.4-11.1-3.7-1.7-6.3-5.5-6.3-9.8s4.8-10.8,10.8-10.8,10.8,4.9,10.8,10.8-2.6,8.1-6.3,9.8c6,1.4,10.9,5.6,13.4,11.1Z"/>
        <path class="cls-2" d="M28,3.1C14.3,3.1,3.2,14.2,3.2,27.9s2.6,12.7,6.9,17.1c2.5-5.5,7.4-9.7,13.4-11.1-3.7-1.7-6.3-5.5-6.3-9.8s4.8-10.8,10.8-10.8,10.8,4.9,10.8,10.8-2.6,8.1-6.3,9.8c6,1.4,10.9,5.6,13.4,11.1,4.2-4.5,6.9-10.5,6.9-17.1,0-13.7-11.1-24.8-24.8-24.8Z"/>
        <circle class="cls-1" cx="28" cy="28" r="24.9"/>
      </g>
    </g>
  </g>
</svg>