<svg width="18" height="18" viewBox="0 0 18 18" fill="none" xmlns="http://www.w3.org/2000/svg">
<g id="arcticons:public-services-culture">
<path id="Vector" d="M7.40705 10.0113C7.40705 10.0113 7.77492 10.7613 8.63705 10.9926C9.49955 11.2236 10.1933 10.7579 10.1933 10.7579M9.9878 8.28926C10.4494 8.00688 11.0303 8.21051 11.343 8.65263M7.37817 7.58988C7.83942 7.30713 8.42067 7.51076 8.73342 7.95288" stroke="black" stroke-width="0.5" stroke-linecap="round" stroke-linejoin="round"/>
<path id="Vector_2" d="M6.69 5.02006L5.73225 8.85143C5.34225 10.4141 5.85225 11.9114 8.01863 13.1291C10.5041 13.1579 11.6936 12.1162 12.1373 10.5678L13.2244 6.77093C13.2244 6.77093 11.9404 5.92868 10.0815 5.43068C8.22263 4.93268 6.68925 5.02006 6.68925 5.02006H6.69Z" stroke="black" stroke-linecap="round" stroke-linejoin="round"/>
<path id="Vector_3" d="M15.7714 9.00009C15.7714 12.4707 15.3176 13.2758 12.3851 15.0113C9.45376 16.7465 8.54626 16.7465 5.61451 15.0113C2.68201 13.2758 2.22864 12.4707 2.22864 9.00009C2.22864 5.52947 2.68239 4.72434 5.61489 2.98884C8.54626 1.25372 9.45376 1.25372 12.3855 2.98884C15.318 4.72434 15.7714 5.52947 15.7714 9.00009Z" stroke="black" stroke-linecap="round" stroke-linejoin="round"/>
</g>
</svg>
