<svg width="15" height="14" viewBox="0 0 15 14" fill="none" xmlns="http://www.w3.org/2000/svg">
<path id="Vector" d="M14 0.519043C14.5523 0.519043 15 0.966758 15 1.51904V10.2313C15 10.7836 14.5523 11.2313 14 11.2313H5.75395C5.49721 11.2313 5.2503 11.3301 5.06436 11.5071L3.55429 12.945C2.92149 13.5476 1.875 13.099 1.875 12.2252V12.1688C1.875 11.6511 1.45527 11.2313 0.9375 11.2313C0.419733 11.2313 0 10.8116 0 10.2938V1.51904C0 0.966758 0.447715 0.519043 1 0.519043H14ZM1.83019 1.41173C1.33717 1.41173 0.9375 1.8114 0.9375 2.30442C0.9375 2.79744 1.33717 3.19711 1.83019 3.19711H13.1698C13.6628 3.19711 14.0625 2.79744 14.0625 2.30442C14.0625 1.8114 13.6628 1.41173 13.1698 1.41173H1.83019ZM13.0625 10.3386C13.6148 10.3386 14.0625 9.89091 14.0625 9.33863V5.0898C14.0625 4.53752 13.6148 4.0898 13.0625 4.0898H1.9375C1.38522 4.0898 0.9375 4.53752 0.9375 5.0898V9.40113C0.9375 9.91889 1.35723 10.3386 1.875 10.3386H2.19942C2.53801 10.3386 2.8125 10.6131 2.8125 10.9517C2.8125 11.4907 3.45802 11.7674 3.84836 11.3957L4.66886 10.6144C4.85479 10.4374 5.1017 10.3386 5.35844 10.3386H13.0625ZM9.375 5.98249C9.375 5.4302 9.82272 4.98249 10.375 4.98249H12.125C12.6773 4.98249 13.125 5.43021 13.125 5.98249V8.44594C13.125 8.99822 12.6773 9.44594 12.125 9.44594H10.375C9.82272 9.44594 9.375 8.99822 9.375 8.44594V5.98249ZM10.3125 7.61575C10.3125 8.13352 10.7322 8.55325 11.25 8.55325C11.7678 8.55325 12.1875 8.13352 12.1875 7.61575V6.81268C12.1875 6.29491 11.7678 5.87518 11.25 5.87518C10.7322 5.87518 10.3125 6.29491 10.3125 6.81268V7.61575ZM1.875 6.32153C1.875 6.07502 2.07484 5.87518 2.32134 5.87518H7.99116C8.23767 5.87518 8.4375 6.07502 8.4375 6.32153C8.4375 6.56803 8.23767 6.76787 7.99116 6.76787H2.32134C2.07484 6.76787 1.875 6.56803 1.875 6.32153ZM1.875 8.1069C1.875 7.86039 2.07484 7.66056 2.32135 7.66056H7.99116C8.23767 7.66056 8.4375 7.86039 8.4375 8.1069C8.4375 8.35341 8.23767 8.55325 7.99116 8.55325H2.32135C2.07484 8.55325 1.875 8.35341 1.875 8.1069Z" fill="black"/>
</svg>
