<?xml version="1.0" encoding="UTF-8"?>
<svg id="_6" xmlns="http://www.w3.org/2000/svg" viewBox="0 0 555.74 377.58">
  <defs>
    <style>
      .cls-1 {
        stroke: #fec215;
        stroke-miterlimit: 10;
        stroke-width: 17px;
      }

      .cls-1, .cls-2 {
        fill: #ffdb7b;
        isolation: isolate;
        opacity: .6;
      }

      .cls-3 {
        letter-spacing: 0em;
      }

      .cls-4 {
        fill: #fff;
      }

      .cls-5 {
        fill: #99d1f2;
      }

      .cls-6 {
        letter-spacing: -.01em;
      }

      .cls-7 {
        letter-spacing: -.02em;
      }

      .cls-8 {
        letter-spacing: -.05em;
      }

      .cls-9 {
        letter-spacing: -.02em;
      }

      .cls-10 {
        fill: #30408c;
        font-family: DMSans-Medium, 'DM Sans';
        font-size: 56.12px;
        font-weight: 500;
      }

      .cls-11 {
        fill: #fec215;
      }
    </style>
  </defs>
  <ellipse class="cls-1" cx="389.82" cy="188.79" rx="181.93" ry="155.43" transform="translate(105.83 515.82) rotate(-74.87)"/>
  <path class="cls-11" d="M505.91,196.52c-14.29,34.74-59.04-10.59-63.11-31.13-5.08-16.92,8.54-24.35,24.57-20.28,22.8,4.49,45.83,28.13,38.67,50.98l-.14.44h.01Z"/>
  <path class="cls-11" d="M325.52,153.16c-38.13-6.77-.67-57.88,19.45-65.71,16.23-8.08,26.44,3.35,25.41,19.3-.14,22.43-19.74,48.79-44.39,46.46l-.47-.04h0Z"/>
  <path class="cls-11" d="M407.43,290.04c-12.49,24.45-62,30.32-94.03,1.74-16.29-14.12-19.46-34-11.4-46.02,9.39-16.01,35.49-21,60.02-11.95,26.96,9.08,57.57,33.97,45.57,55.93l-.16.31h0Z"/>
  <path class="cls-2" d="M369.72,288.27c-4.04,8.39-24.57,7.42-39.44-5.36-7.54-6.35-9.85-14.02-7.06-18.02,3.16-5.41,13.88-5.62,24.64-.65,11.78,5.14,25.87,16.45,21.91,23.93l-.05.11h0Z"/>
  <g>
    <path class="cls-4" d="M185.31,200.01c20.44-14.28,48.61,11.87,71.54,21.53,11.95,5.03,5.02-8.55-.4-17.91-6.79-11.72-20.47-40.22-26.65-51.29-5.17-9.26-9.46-17.75-11.04-27.34-2.14-12.4,5.94-23.19,11.66-33.48,5.46-9.46,9.51-21.13,2.7-30.57-24.96-30.69-123.72-41.46-163.09-38.7-38.82,2.65-45.22,27.04-50.96,60.51-12.14,77.98-33.97,226.01,54.68,265.35,25.23,10.79,55.92,10.2,80.32-2.66,8.78-4.64,16.95-11.54,20.54-21.01,4.39-11.23,2.14-24.14.53-36.32-1.86-13.32-6.8-26.57-5.61-39.97,1.12-12.61,5.4-40.87,15.78-48.13h0Z"/>
    <path class="cls-5" d="M189.09,206.49c7.39-4.88,15.5-3.11,23.29.01,9.53,3.82,18.25,9.59,27.16,14.63,6.8,3.85,18.31,12.17,26.37,7.78,8.43-4.59,4.18-15.14,1.04-21.61-3.59-7.38-7.92-14.43-11.68-21.73-4.44-8.64-8.76-17.33-13.19-25.98s-9.45-16.43-12.9-25.16c-1.93-4.88-3.82-10.44-3.19-15.75s3.48-10.49,6.16-15.19c5.51-9.65,11.97-19.47,12.04-31.02.05-9.4-4.76-16.96-11.78-22.74-11.76-9.69-26.39-15.46-40.79-19.94-32.9-10.24-68.4-14.75-102.79-15.39-15.46-.29-31.81-.05-45.88,7.13s-22.4,22.15-26.58,37.43-5.89,30.08-8.07,45.16c-2.35,16.27-4.43,32.58-5.92,48.96-3.09,34.01-3.84,68.58,1.85,102.37,5.1,30.28,16.57,61.36,39.95,82.34,31.19,27.99,81.4,34.51,117.56,11.91,9.68-6.05,17.55-14.62,20.92-25.69,3.74-12.27,1.47-25.48-.31-37.88-1.81-12.67-6.36-25.02-5.34-37.97.61-7.68,1.96-15.37,3.83-22.83,1.45-5.75,3.82-15.5,8.23-18.82,3.26-2.45,4.86-6.45,2.69-10.26-1.83-3.21-7.03-5.12-10.26-2.69-12.85,9.66-16.04,28.73-18.18,43.68-1.47,10.27-1.73,19.9.1,30.2,2.12,11.92,5.07,23.55,5.98,35.67.82,10.97-.67,21.05-8.98,28.86-7.51,7.06-17.81,11.12-27.66,13.61-20.18,5.1-42.76,2.94-61.23-6.84-54.82-29.04-58.44-103.68-56.05-158.01,1.3-29.69,5.14-59.18,9.65-88.54,2.18-14.18,3.92-29.77,10.63-42.66s19.92-18.77,34.62-19.79c29.69-2.05,60.54,1.63,89.59,7.54,15.19,3.09,30.66,6.92,44.84,13.29,10.38,4.66,27.04,12,23.84,25.93-2.34,10.16-9.7,18.48-13.84,27.92-4.73,10.8-4.71,21.35-.72,32.41,3.31,9.18,8.35,17.51,12.84,26.13,4.06,7.81,7.98,15.69,11.97,23.54,3.57,7.03,7.14,14.06,11.03,20.92,1.81,3.18,3.78,6.39,5.1,9.81.4,1.04.95,2.77.85,2.67,1.48,1.52,4.12-6.09,5.2-4.78-.02-.03-2.89-1.11-2.88-1.1-17.31-7.52-32.34-21.23-51.3-24.8-8.89-1.67-17.75-.74-25.42,4.33s-.51,18.29,7.57,12.95h.04Z"/>
  </g>
  <text class="cls-10" transform="translate(52.22 117.47) rotate(9.64)"><tspan class="cls-7" x="0" y="0">L</tspan><tspan class="cls-6" x="28.9" y="0">e</tspan><tspan class="cls-3" x="60.61" y="0">t</tspan><tspan class="cls-8" x="83.34" y="0">’</tspan><tspan class="cls-3" x="93.32" y="0">s</tspan><tspan x="5.33" y="67.34">pl</tspan><tspan class="cls-9" x="54.27" y="67.34">a</tspan><tspan x="84.63" y="67.34">y</tspan><tspan x="44.14" y="134.68">:)</tspan></text>
</svg>