<?xml version="1.0" encoding="UTF-8"?>
<svg id="soutien" xmlns="http://www.w3.org/2000/svg" viewBox="0 0 983.4 781.6">
  <defs>
    <style>
      .cls-1 {
        fill: #f7afbc;
      }

      .cls-1, .cls-2, .cls-3, .cls-4, .cls-5, .cls-6, .cls-7, .cls-8, .cls-9, .cls-10 {
        fill-rule: evenodd;
      }

      .cls-2 {
        fill: #facdd9;
      }

      .cls-3 {
        fill: #ffdb7b;
      }

      .cls-4 {
        fill: #ffdba7;
      }

      .cls-5 {
        fill: #b4917c;
      }

      .cls-6 {
        fill: #db9d95;
      }

      .cls-7 {
        fill: #efbdb4;
      }

      .cls-8 {
        fill: #99d1f2;
      }

      .cls-9 {
        fill: #f8e1c2;
      }

      .cls-10 {
        fill: #2e418c;
      }
    </style>
  </defs>
  <g>
    <path class="cls-10" d="M317.08,254.87l178.09,3.81,18.33-96.24-205.49-15.64c-4.29-.32-8.38-.37-12.28-.17l-18.18,100.6c11.47,4.59,24.91,7.32,39.53,7.63Z"/>
    <path class="cls-8" d="M231.92,255.08l251.57,6.24,18.37-100.64-262.16-31.95c-31.81-3.88-59.84,20.95-59.84,52.99v19.99c0,28.97,23.1,52.65,52.06,53.37Z"/>
  </g>
  <g>
    <path class="cls-7" d="M427.95,258.98l-9.22-117.32c-2.8-26.13-32.57-28.78-32.01-8.18l-1.21.05c-3.36-19.53-33.9-24.16-35.36-4.38l-1.25.05c-1.29-14.94-25.51-19.38-31.66-.53l-1.5.22-.19-.33c-6.33-11.58-26.81-10.44-24.85,8.03l10.57,99.71c2.67,25.18-1.66,32.33,18.55,46.51l38.87,26.14,23.69,12.68,31.95-40.79c13.27-4.48,25.32-5.65,29.91-20.96l-16.27-.9Z"/>
    <path class="cls-2" d="M402.03,471.01l3.27-178.1-96.3-18.03-2.73,205.67c-.19,14.5,1.4,26.54,4.26,36.33l73.43,11.92c10.35-13.71,17.63-33.44,18.07-57.79Z"/>
    <path class="cls-10" d="M414.6,543.82l-6.63-239.24-100.7-18.06-.83,258.63c-.09,28.54,23.24,51.6,51.77,51.19l6.11-.09c28.44-.41,51.06-24,50.27-52.44Z"/>
  </g>
  <g>
    <path class="cls-4" d="M409.5,367.6l-105.44,11.05c-25.93,4.23-28.48,34.36-7.89,39.04l.11,1.2c-19.33,4.41-23.55,32.49-3.72,32.89l.11,1.24c-13.66,5.15-16.42,27.64,2.93,32.16l.3,1.49-.32.02c-11.23,6.94-9.44,28.06,8.71,28.79l99-15.86c25-4.01,32.38-.07,45.46-21l24.03-40.21,11.4-24.34-42.44-29.72c-5.18-13.03-16.29-25.64-31.83-29.41l-.43,12.64Z"/>
    <path class="cls-8" d="M628.75,393.09l-178.75-.13-12.86,97.12,204.58-4.42c5,.1,9.31-1.1,13.74-1.69l22.74-87.67c-13.73-6.68-30.33-3.88-49.45-3.21Z"/>
    <path class="cls-3" d="M721.2,388.39l-259.68,1.27-12.67,101.53,272.97-2c28-.21,50.47-23.2,50.03-51.2h0c-.44-27.62-23.02-49.73-50.64-49.6Z"/>
  </g>
  <g>
    <path class="cls-6" d="M534.37,389.93l17.82,108.35c5.95,25.59,41.38,22.91,38.34,2.54l1.19-.19c5.69,18.98,24.33,21.93,32.45,4.61l1.24-.19c6.04,13.28,35.43,15.64,36.55-2.41l1.46-.4.05.32c7.67,10.74,29.62,10.94,25.45-7.15l-24.84-107.85c-5.69-24.68-2.25-32.3-24.02-43.94l-41.74-21.26-25.04-9.73-26.8,44.34c-12.64,6.05-24.56,16.88-27.26,32.63l15.15.36Z"/>
    <path class="cls-9" d="M546.42,170.82l7.53,171.86,97.77,6.28c-6.88-143.3-105.35-179.37-105.3-178.14Z"/>
    <path class="cls-1" d="M529.91,137.71l19.98,193.71,102.14,5.79-11.82-208.07c-1.61-28.34-25.7-50.12-54.07-48.88l-6.92.3c-29.82,1.31-52.38,27.45-49.32,57.14Z"/>
  </g>
  <path class="cls-5" d="M658.15,242.97l-.05-1.2c19.54-3.3,15.65-33.79-4.11-35.31l-.05-1.26c13.93-4.36,16.16-35.84-4.92-35.86l-.23-1.51h.33c11.6-6.29,14.03-25.77-4.45-23.87l-92.57,10.86c-20.32,2.08-28.89-.34-38.92,9.22l-17.94,94.26,18.25,11.17c4.44,13.29,10.6,18.94,22.72,29.35,1.07.92,10.2,6.48,10.98,6.48l-.78-13.67,85.66-8.81c26.13-2.71,44.55-28.38,26.07-39.86Z"/>
</svg>