<svg xmlns="http://www.w3.org/2000/svg" xmlns:xlink="http://www.w3.org/1999/xlink" viewBox="0 0 595.28 841.89"><defs><style>.cls-1{fill:#98d0f2;}.cls-2{fill:#f9cbd8;}.cls-3{stroke:#30428e;stroke-miterlimit:10;opacity:0.6;fill:url(#Dégradé_sans_nom_184);}.cls-4{fill:#fff;}</style><linearGradient id="Dégradé_sans_nom_184" x1="335.51" y1="853.84" x2="259.76" y2="-11.95" gradientUnits="userSpaceOnUse"><stop offset="0" stop-color="#30428e"/><stop offset="0.2" stop-color="#384c92"/><stop offset="0.53" stop-color="#4d669e"/><stop offset="0.96" stop-color="#6e91b0"/><stop offset="1" stop-color="#7296b2"/></linearGradient></defs><g id="Recto"><rect class="cls-1" x="6.88" y="5.06" width="581.51" height="831.78" rx="61.19"/><path class="cls-2" d="M5,472.76c17.38,13,22.33,26.9,31.33,46.2,13.64,29.23,1.52,43.95,6.74,59.16C50.9,601,83.7,607.36,99.62,625.35c40,45.22-2.8,54.88,57.61,70.25,53.05,13.5,51.23-5.18,88.3,39.94,7.17,8.73,29.62,14.24,50.57,9.25,32.5-7.74,31.34-21.17,47.42-22.67,27.91-2.58,40.35-11.31,59.11-29.33,13-12.5,2.47-27.68,18.22-36.89C459.2,633.49,522.78,611.71,528,592.79c7.33-26.77-5.64-46.84-.91-49.23,1.74-.88,18.68-2.32,24.91-21.44,3.79-11.65,6.11-38.28,7.51-48.44.55-4,1.19-7.93,2-11.87,4.8-22.27,16.18-43.13,24.05-64.8s12-46,2.41-65.51c-3.31-6.69-8.14-12.57-10.6-19.65-3-8.74-2.22-18.54-2.76-28-1.73-30.28-18.84-58.07-44.85-72.81-11.12-6.31-23.68-10.33-34.31-17.35-19-12.56-30-33.37-43.78-51.32s-33.37-34.48-57.31-32.76c-9.45.68-18.87,4.22-28.26,3.93-19.93-.62-36.28-18.18-55.29-17.7-4.56-3.66-86,8.1-107.25,20.1-5.56,3.14-11.21,6.28-17.38,7.91-73.78,19.56-44.45,44.45-42,75,1.94,24.53-55.79,16.09-71.3,39.2-14.17,21.12,1.78,44-43.27,44.37-4.62,0-8.46,4-12.25,6.65a36.57,36.57,0,0,0-7.85,7.3c-3.76,4.79,12.21,6,10.48,11.75-1.31,4.34-5.18,34.1-8.79,40.1-1.6,2.67-5.12,5-9.46,7.11Zm88.91-7.19c3-15,12.68-30.54,5.44-44.65-2.52-4.89-6.88-8.87-8.5-14.1-1.43-4.58-.53-9.4.38-14q4-20.06,8-40.1c.83-4.18,1.75-8.54,4.46-11.71,4.19-4.88,11.34-5.57,17.56-7.37a42.9,42.9,0,0,0,26.72-23c4.13-8.89,5.38-19.39,11.37-27,7.86-10.07,21.91-12.73,34.93-12.86s26.47,1.57,38.7-2.31c32-10.15,44.22-54.2,77.27-60.89,0,0,17,3.74,22.87,14.47,1.62,3,2.62,6.29,4.67,9,4.81,6.38,13.53,7.44,21.09,9.41,14.25,3.71,42.7,1.38,51.66,13.49,7,9.5,11.45,20.67,18.35,30.26,14.45,20.08,39.73,33.61,45.53,57.37,3.63,14.87-1.37,31.31,6.08,44.85,4.59,8.35,13.86,16.39,11.06,25.11-.67,2.09-1.48,11.56-.22,14.09,5.32,10.71,11.27,21.23,14.73,32.61s-11.1,35.27-16.15,45.5c-7,14.19-23.59,20.75-39.53,21.69-5.09.3-10.29.16-15.13,1.57-5.82,1.71-10.66,5.53-15.36,9.28l-59.18,47.2c-7.14,5.7-14.61,11.55-23.66,13.42-10.22,2.11-21.16-1.14-31.53.21-11.23,1.46-20.89,8.16-31.93,10.48-10.71,2.24-22,.24-33-1.75l-35.12-6.38c-7.22-1.31-15.43-3.3-19.23-9.81-3.31-5.68-1.94-12.78-4.17-18.93-3.59-9.93-14.88-14.34-24.56-18.31-17.88-7.33-35.13-17.77-47.62-32.9S90.16,484.11,93.89,465.57Z"/><rect class="cls-3" x="6.88" y="5.06" width="581.51" height="831.78" rx="61.19"/><path class="cls-4" d="M530.17,0H65.11C29.15,0,0,31.79,0,71V770.88c0,39.22,29.15,71,65.11,71H530.17c36,0,65.11-31.79,65.11-71V71C595.28,31.79,566.13,0,530.17,0ZM65.11,812.88c-21.24,0-38.51-18.84-38.51-42V71c0-23.16,17.27-42,38.51-42H530.17c21.23,0,38.51,18.84,38.51,42V770.88c0,23.16-17.28,42-38.51,42Z"/><path class="cls-4" d="M538.35,792.8c-6,3.9-14,3.59-17.21-1.39s-.72-12.17,5.25-16.07,13.87-4.56,17.13.42S544.33,788.89,538.35,792.8Z"/><path class="cls-4" d="M546.33,755.54c.07-4.11,2-6.9,4.92-7.18s4.16.49,4.9,4.54c.78,4.27-1.15,11.07-4.09,11.35S546.25,760.41,546.33,755.54Z"/><path class="cls-4" d="M507.06,792c3.32,2.23,4,5.27,2.57,7.41s-5.46,3.14-8.78.91-6.88-5.84-5.26-9.46C496.64,788.47,502.71,789.05,507.06,792Z"/><path class="cls-4" d="M47.47,56.65c-1.19-7,2.29-14.23,8.16-15.22s11.44,4.21,12.63,11.25S66.89,67.21,61,68.2,48.66,63.69,47.47,56.65Z"/><path class="cls-4" d="M46.22,76.11c3.46,2.22,4.82,5.32,3.51,8s-2.62,3.27-6.44,1.77c-4-1.59-8.8-6.82-7.49-9.47S42.13,73.47,46.22,76.11Z"/><path class="cls-4" d="M88.71,44.19c-1.1-2.94-.15-5.2,1.75-5.91s4.92.49,6,3.43,1.73,6.88-1,8.45C93.77,51.19,90.16,48.06,88.71,44.19Z"/></g></svg>