<svg id="Verso" xmlns="http://www.w3.org/2000/svg" viewBox="0 0 595.28 841.89"><defs><style>.cls-1{fill:#98d0f2;}.cls-2{fill:#f9cbd8;}.cls-3,.cls-7{fill:#fdda7c;}.cls-3{stroke:#fff;}.cls-3,.cls-5{stroke-miterlimit:10;}.cls-4,.cls-5{fill:#fff;}.cls-5{stroke:#f5afbe;}.cls-6{fill:#27438d;}.cls-8{fill:#f5afbe;}.cls-9{fill:#9ad1f3;}.cls-10{fill:#30428e;}</style></defs><g id="Carte"><rect class="cls-1" x="3.84" y="10.11" width="581.51" height="831.78" rx="61.19"/><path class="cls-2" d="M566,432.17c-3.06-43.64-48.54-77.08-42.21-120.29.77-5.26,2.31-10.36,3.32-15.55.37-1.92,2.44-5,.82-5.81-59.63-31.18-29.09-55.27-36.26-62.6-2.8-2.86-5.55-5.79-8.14-8.87-14.69-17.42-24.22-39.18-36.55-58.66s-29-37.7-50.34-42c-7.32-1.48-14.93-1.25-22-3.63-8.77-3-16-9.59-23.79-14.92-25-17.16-57.46-20.62-85-9.08-11.79,4.94-22.65,12.42-34.71,16.53-21.57,7.36-44.79,3.36-67.38,3.24s-47.69,5.3-61,25.29c-5.25,7.9-8.21,17.51-14.19,24.76C75.86,176,52,178.17,40.72,193.49a69.64,69.64,0,0,0-17.85,7.08c-3,70.3-20,152.42-2.62,187.8,10.86,22.08,19,44.63,17.06,69.21-2,25.35-14.89,48-21,72.54A70.42,70.42,0,0,0,14,543.88a36.86,36.86,0,0,0,1,10.68c1.49,5.9,12.25-6,15.71-1.11,2.63,3.7,23.8,25,26.35,31.49,3.93,10.09-9.91,35.77-6,45.71s17.18,62.75,24.36,70c18.53,18.8,39.8-20.3,63.4-30.19,28.69-12,43.83-6.62,68.58-1,31.46,7.09,35.69,25.68,50.91,30.86,22.93,7.81,48-14.26,72-15.85,60.25-4,41.7,35.79,90.82-2.6,43.13-33.7,27.24-43.69,85.61-45.41,11.3-.33,37.61,3.55,46.48-16.07C567,590,567.81,584.12,576.47,570.48c15-23.65-2.39-57,7.46-83.72C590.17,469.83,567.3,450.37,566,432.17Zm-67.64,65.62c-11.76,12.87-30.06,22.22-31.64,40.35-.55,6.28,1.18,12.79-.39,18.87-1.39,5.33-5.1,9.5-8.67,13.42l-31.33,34.38c-3.26,3.58-6.72,7.3-11.15,8.76-6.83,2.25-14-1.36-20.87-3.32a46.72,46.72,0,0,0-38.74,6.4c-9.16,6.21-16.57,15.71-26.74,19.61-13.37,5.12-28.15-.71-40.45-8.38s-23.93-17.41-37.72-21c-36.07-9.27-73.74,26.43-108.75,13.15,0,0-13.75-13.85-12.88-27.84.24-3.88,1.27-7.72,1-11.59-.73-9.12-8.28-15.39-14.21-21.84-11.19-12.17-18.21-28.81-19.44-46-1-13.49,1.53-27.06.75-40.56C95.48,444,79.77,415.59,88.44,388.9c5.44-16.7,19.89-29.76,21-47.45.65-10.91-3.27-24.32,4.53-31.16,1.87-1.64,8.26-10.41,8.58-13.62,1.37-13.66,2-27.51,5.54-40.69s10.32-25.94,21.14-32.9c15-9.66,34.49-6.13,50,2.5,5,2.76,9.76,6,15.15,7.54,6.47,1.83,13.29,1,19.93.15l83.64-10.63c10.09-1.29,20.58-2.53,30.19,1.08,10.84,4.06,19.18,13.79,29.74,18.7,11.41,5.3,24.46,4.55,36.21,8.9,11.38,4.23,20.82,13,30,21.5l29.19,27.28c6,5.61,12.53,12.47,12.23,21.11-.27,7.54-5.77,13.65-7.34,21-2.52,11.85,5.46,22.92,12.19,32.6,12.44,17.88,22.43,38.42,25.18,60.69S512.9,481.91,498.38,497.79Z"/><g id="Lettre"><path class="cls-3" d="M309.89,255.26c-1.19-17.56-21.42-8.73-21.42-8.73l1.82,9.71s2.72-.92,3.68-1.36c7-3.2,10,3.57,6.69,4.75-6.41,2.31-8.06,4-7.61,9.29.3,3.56.38,8,2,8.74,3.77,1.76,6.53,1.56,7-1.13.87-4.83-1.24-8.14,2.19-9.18C311.7,265.09,310.09,258.28,309.89,255.26Z"/><path class="cls-3" d="M301.83,290.11c-4.93-3.67-7.94,2-6.31,4.61s5,3,6.06,1.76C303.54,294,303.82,291.6,301.83,290.11Z"/><path class="cls-3" d="M490.53,450.42c15.89.71,10.31-22.28,10.31-22.28l-8.93.88s.52,3.05.8,4.15c2.06,8-4.35,10.43-5,6.72-1.34-7.23-2.63-9.21-7.46-9.32-3.23-.08-7.2-.49-8.07,1.19-2,3.9-2.16,6.93.2,7.76,4.24,1.5,7.44-.41,8,3.43C481.51,451.27,487.8,450.3,490.53,450.42Z"/><path class="cls-3" d="M462.94,438c3.64-5-.79-8.84-3.13-7.34s-3.13,5.14-2.17,6.39C459.46,439.48,461.46,440.05,462.94,438Z"/><path class="cls-3" d="M128,400.59c-12.5-2.65-10.62,18.63-10.62,18.63l7.18,1.52s-.39-1.79-.61-2.44c-1.6-4.76,3-6,3.49-3.83,1,4.26,1.21,6.49,5.06,6.92,2.56.3,3.19.42,3.93-.45,6.39-7.41-2.87-4.89-3.28-7.13C132.28,408.94,134.92,402.05,128,400.59Z"/><path class="cls-3" d="M146.65,418.13c-2.45,3.39.08,6.21,1.58,5.22s2.15-3.52,1.62-4.43C148.84,417.2,147.64,416.75,146.65,418.13Z"/><path class="cls-3" d="M165.81,283.34c-2.63.46-4.56,9.79-3.85,11.66s5.92,4.79,10.38,6.83c.71.33,7.5,3.85,8.19,4.26,2.21,1.3,8.34-5.73,7.94-6.83C186.93,295,168.64,282.84,165.81,283.34Z"/><path class="cls-3" d="M198.63,307.59a7,7,0,0,0-6,7.19c0,4.13,1.52,7.05,4.63,7.05s5.61-2.75,6-7.14C203.53,310.58,202.92,307.19,198.63,307.59Z"/><path class="cls-3" d="M442.75,277.46c2.6-.62,9.07,8.33,9,10.35s-4.3,5.05-7.77,8.73c-.56.6-6.16,8-6.66,8.66-1.62,2.1-9.22-5.65-9.22-6.83C428.14,293.79,440,278.12,442.75,277.46Z"/><path class="cls-3" d="M423.57,309.24c3-1,8.27.3,10.54,4,2.1,3.44-1.57,5.32-4.46,6.56s-6.39.53-9.15-2.32S419.45,310.59,423.57,309.24Z"/></g><path class="cls-4" d="M245.18,770.73c-.73,4.91-5.35,8.76-9.61,7s-6.32-3.32-6.32-8.58.73-11.38,6.93-8.84C240.43,762.07,246,765.55,245.18,770.73Z"/><path class="cls-4" d="M90.25,648.27c.35,5.67-1.42,8.4-5.67,9.09-2.47.4-7-4.54-8.55-9.7-.53-1.7-1.47-8.55,3-9.24C83.32,637.78,89.89,642.24,90.25,648.27Z"/><path class="cls-4" d="M350.43,63.86c0,6.12-3.9,6.52-8.39,5.06-5.87-1.91-13.56-6.79-13.56-14.44,0-6.12,6.9-7.2,12-3.46C345.68,54.88,350.43,57.74,350.43,63.86Z"/><path class="cls-4" d="M547.49,70.39c0,7.14-4.63,13.65-10.58,13.65S526.33,78,526.33,70.84s3.77-14.1,9.72-14.1S547.49,63.25,547.49,70.39Z"/><path class="cls-4" d="M512.59,54.46c-.47,4.08-2.64,6.67-5.6,6.67s-4.09-.89-4.44-5c-.36-4.32,2.22-10.91,5.17-10.91S513.13,49.62,512.59,54.46Z"/><path class="cls-4" d="M555.63,113c0,3.14-1.67,4.93-3.71,4.93s-4.43-2.19-4.43-5.33.79-7,3.86-7.58C553.35,104.62,555.63,108.83,555.63,113Z"/><path class="cls-4" d="M530.17,0H65.11C29.15,0,0,31.79,0,71V770.88c0,39.22,29.15,71,65.11,71H530.17c36,0,65.11-31.79,65.11-71V71C595.28,31.79,566.13,0,530.17,0ZM65.11,812.88c-21.24,0-38.51-18.84-38.51-42V557.78c.62,6.77,2.44,13.05,6.82,17.88,5.63,6.21,15.14,15.17,16.67,23.74,2.33,13-9,35.2-6.56,60,1.65,16.45,10,44.13,46.9,63.64,31.69,16.75,17.34,50.27,81.24,89.84ZM45,452.08c3.44,0,6.22,3.59,5.61,8-.51,3.7-3.15,8-6.58,8s-4.94-5.45-5.25-9.18C38.3,453,41.58,452.08,45,452.08Zm523.67,318.8c0,23.16-17.28,42-38.51,42H275.35a204.47,204.47,0,0,0-44.81-24,15,15,0,0,1-5.25-2.85c-6.26-6-.87-19.76-7.69-25-4-3-9.56-.83-13.29,2.54s-6.7,7.87-11.07,10.15c-4.59,2.39-10,1.92-15,.67-32.29-8.14-52.43-46.9-51-83,.4-9.84,2-20.31-2.11-29.1s-17.11-12.93-21.91-4.59c-5,8.69,3.66,20.08,1.24,30-1.79,7.33-9.62,11.49-16.5,10.4s-12.68-6.3-16.89-12.33C60.87,671,58.5,651.28,59.9,632.82a148.42,148.42,0,0,1,14.62-54c5.66-11.52,13.09-24,10-36.57a9.62,9.62,0,0,0-2.23-4.58c-3.56-3.58-9.33-.65-12.9,2.91s-7.52,8.06-12.31,7.25c-4.55-.77-7.18-6-8.43-10.86-8.43-32.59,14.16-67.63,5.81-100.24-5.09-19.86-21-35.58-27.85-54.14V71c0-23.16,17.27-42,38.51-42h252c13.32,8.6,31.75,11,43.85,22.43,10.9,10.3,15.2,26.66,16.78,42.3s1,31.64,4.62,46.87c2.61,11,10.54,23.3,20.78,21,1.48-6.17-1.7-13,.44-19,3-8.38,14.95-8.45,20.86-2.15s7.4,15.9,8.56,24.82q2.23,17,4.46,34c.49,3.76,1.2,7.94,4,10.16s6.76,1.62,10.29,1.92c13.32,1.14,22,16.88,22.64,31.44s-4.4,28.6-7.13,42.88-2.66,30.73,6.33,41.52c3.18,3.82,13.78,11.69,17.85,9.06,8.78-5.68-8.13-24.12,1.63-39,10.5-16,27.79,30,28.52,38.82s-1.53,17.89.32,26.53c3.72,17.43,22.36,26.72,27.8,43.61,4.57,14.2-1.23,30.7,4.06,44.6,2.86,7.51,8.35,12.85,14.84,17Zm0-412.72c-1.16-1.37-2.37-2.71-3.64-4-7.22-7.15-16.21-12.59-21.25-21.7C535,316.66,540,293,527.05,281.17c-5.13-4.69-12-6.28-18.14-9.1s-12.39-8-12.94-15.28c-.25-3.37.78-6.68,1.67-9.92,3.32-12.06,4.92-25,2.34-37.26s-9.81-23.8-20.4-28.81c-7.94-3.76-17.86-4.18-23.34-11.5-5.92-7.9-3.5-19.48-4.46-29.63-1.49-16-13.09-30.23-27.46-33.74-4.59-1.12-10.05-1.71-12.48-6.1-1.73-3.15-1.19-7.12-.75-10.76A122.14,122.14,0,0,0,403,29H530.17c21.23,0,38.51,18.84,38.51,42Z"/><path class="cls-4" d="M416.37,177.39c-4.81,0-8.35,2.79-8.35,8s2.81,13.08,7.62,13.08a8.58,8.58,0,0,0,8.7-8.87C424.34,184.39,421.17,177.39,416.37,177.39Z"/></g><g id="Main"><path class="cls-4" d="M505.92,720.59a6.68,6.68,0,0,1,4.82-3,4.45,4.45,0,0,1,4.19,2.22,1.33,1.33,0,0,0,2.38-1.18,7.06,7.06,0,0,0-6.68-3.67,9.28,9.28,0,0,0-6.9,4.17A1.33,1.33,0,0,0,505.92,720.59Z"/><path class="cls-4" d="M519,729.08a8.76,8.76,0,0,0-6.87-4c-3.12-.15-5.68,1.6-8.07,3.38a1.33,1.33,0,1,0,1.74,2c1.73-1.29,3.7-2.79,6-2.74a6.05,6.05,0,0,1,4.86,2.52,1.37,1.37,0,0,0,1.77.6A1.34,1.34,0,0,0,519,729.08Z"/><path class="cls-5" d="M482.25,762.1c-.57-5.16,17.2-10.16,21.61,1.19,2.54,6.51,2.84-11.68,1.91-16-1.43-6.62,4.63-16.68,7.88-12.62s2.3,20.4,1.47,26.31c0,0,1.89-9.21,1.17-14.54,6.87,1.12,9.29,6.08,9.43,10.69,0,0-.25,5.75-.49,6.62-.49,1.74.71-3.3.57-8.24,3.65,0,4.85,1,5.86,3.83,1.47,4.11,1.22,10.52.61,12.37a25.08,25.08,0,0,0-.61-12.37c6.42-.71,10.11,4,10.15,13.18s-6,17.44-15.72,18.29-24.42,1.11-27.44-12.93c-.92-4.27-2.55-4.37-5.45-8.15a1.65,1.65,0,0,0-1.21-.66C489.71,768.9,482.89,768,482.25,762.1Z"/></g><g id="Ampoule"><path class="cls-4" d="M77.54,105.14c-11.61-9.12-14-19.33-9.67-28.27s12-13.56,20-10.46S100,82.65,94.32,97.66a17.86,17.86,0,0,1-3.71,6.39l.49,2.67L78.15,108.3Z"/><path class="cls-6" d="M83.42,97.85c-.51,0-.53-.49-.55-.85l0-.56c-.12-1.15-.28-2.67-.54-4.24A4.52,4.52,0,0,1,80.49,92c-3.18-1-4.89-5-4.32-7.18a2,2,0,0,1,2.59-1.44c1.82.42,3,2.33,3.71,4.71.12-.73.29-1.58.51-2.61.91-4.13,2.45-6.78,3.86-6.57.66.1,1.41.79,1.22,3.56-.22,3.2-1.34,7.23-3.83,9a4.85,4.85,0,0,1-.86.47c0,.34.09.68.15,1a32,32,0,0,1,.38,3.37v.09L84,97c0,.37,0,.87-.52.88ZM78.07,84.38a.84.84,0,0,0-.87.74c-.45,1.68,1,5.13,3.59,5.89a3.4,3.4,0,0,0,1.32.15c-.61-3.18-1.66-6.27-3.6-6.72A1.85,1.85,0,0,0,78.07,84.38ZM86.67,80c-.3,0-1.69,1.38-2.65,5.75a23.12,23.12,0,0,0-.73,5.05,3.13,3.13,0,0,0,.34-.21c1.79-1.24,3.11-4.44,3.37-8.15.12-1.85-.22-2.39-.32-2.44Z"/><path class="cls-7" d="M80.76,106.36c-.79-2.8-1.63-7.48,2.74-9.36,3.53-1.52,4.13,7,4,9S80.76,106.36,80.76,106.36Z"/><path class="cls-7" d="M82.61,112.86s-1.29,10.87,1.22,12.33,7.29-.08,3.16-12.33S82.61,112.86,82.61,112.86Z"/><path class="cls-8" d="M91.34,114.38c-3.25.3-9.14.84-12.59.83a2.16,2.16,0,0,1-2.24-2c-.09-1.25,0-3.84-.06-5.09A1.82,1.82,0,0,1,78.12,106c3.12-.21,9.87-1.25,13-1.47,1.16-.07,2.57.61,2.64,1.77s-.07,4,0,5.17A3.23,3.23,0,0,1,91.34,114.38Z"/><path class="cls-7" d="M80.33,57.72,79.2,46.34a2.83,2.83,0,0,0-.77-1.87,2.71,2.71,0,0,0-1.88-.78,2.68,2.68,0,0,0-2.65,2.65L75,57.72a2.82,2.82,0,0,0,.78,1.87,2.64,2.64,0,0,0,4.52-1.87Z"/><path class="cls-7" d="M99,65.88c.33-.44.67-.87,1-1.31-.09.13-.29.37-.08.1l.28-.36.51-.64c.69-.85,1.39-1.68,2.12-2.5,1.44-1.64,3-3.22,4.54-4.73a2.68,2.68,0,0,0,0-3.75,2.71,2.71,0,0,0-3.75,0A82,82,0,0,0,94.41,63.2a2.68,2.68,0,0,0,1,3.63,2.72,2.72,0,0,0,2,.27A3.13,3.13,0,0,0,99,65.88Z"/><path class="cls-7" d="M63.67,67.12a51.9,51.9,0,0,0-12.2-11.69,2.66,2.66,0,0,0-3.62,1A2.71,2.71,0,0,0,48.8,60c.53.37,1.06.74,1.59,1.13l.31.24c.51.38-.29-.23,0,0s.52.4.77.61c1,.8,1.94,1.64,2.85,2.51s1.76,1.75,2.59,2.67c.43.48.86,1,1.27,1.48.19.22.37.45.55.68s.21.25.3.38l-.17-.22a3.55,3.55,0,0,1,.23.31A3,3,0,0,0,60.68,71a2.74,2.74,0,0,0,2-.27c1.09-.7,1.85-2.44,1-3.63Z"/><path class="cls-7" d="M55.05,87.39a29.79,29.79,0,0,1-6,1.48l.71-.1c-.77.1-1.53.17-2.3.22a2.65,2.65,0,1,0,0,5.3,31.28,31.28,0,0,0,9-1.79,2.85,2.85,0,0,0,1.59-1.22,2.74,2.74,0,0,0,.27-2,2.69,2.69,0,0,0-3.27-1.85Z"/><path class="cls-7" d="M108.54,83.3l10.53-3.63a2.65,2.65,0,1,0-1.41-5.11l-10.53,3.63a2.65,2.65,0,0,0,1.41,5.11Z"/></g><g id="LOGO"><path class="cls-4" d="M228.89,521.87a37.23,37.23,0,0,1-8.84-1c-.66-.16-2.39-.68-3.72-1.09-3.79-1.15-6.53-2-7.71-5.84l-1.6-5.2,4.44-3.13a22,22,0,0,1,3.34-1.73c1.21-.58,2.39-1.18,2.63-1.31a11,11,0,0,0,2.8-2.26c-.67-.69-1.31-1.4-1.88-2.07a47.26,47.26,0,0,1-10.2-21.52,41.66,41.66,0,0,1-.78-7.36c-.18-4.32-.14-12.73-.07-20A33.71,33.71,0,0,1,194.6,433a39.52,39.52,0,0,1-2.4-12.88,33.25,33.25,0,0,1,.27-5.59,37.53,37.53,0,0,1,6.41-16.38,41.22,41.22,0,0,1,5.38-6.22c-.09-.83-.15-1.71-.2-2.86a28.36,28.36,0,0,1,0-4,36.64,36.64,0,0,1,3.07-11.82,55,55,0,0,1,10.48-15.57A79.28,79.28,0,0,1,229.33,347,63.16,63.16,0,0,1,260,334.69a84.94,84.94,0,0,1,8.57-.26,53.07,53.07,0,0,1,14.12,2.63,44.28,44.28,0,0,1,18.95,12.12l.85-.6A76.82,76.82,0,0,1,333,336a83,83,0,0,1,28.05-.09,69.52,69.52,0,0,1,22.82,7.33c11.82,6.52,19.92,16.72,22.79,28.74a39.54,39.54,0,0,1,.26,17.11,46.26,46.26,0,0,1,6.71,16.7c2.13,11.94-1.69,23-11.08,32.14.37,3.84.91,9.78,1.19,13.21l.47,5.77c.58,7,.45,10.93-.55,15.95a45.92,45.92,0,0,1-11.09,22.26,39.3,39.3,0,0,1-22.64,12.46c-2.59.46-18.73,1-23.61,1.16-26.42.84-33.91,1-47.13,1.17-10.35.12-13.34.16-21.6.3-1.37,0-6.33.19-11.24.38l-6.3.25a58.91,58.91,0,0,1-14.19,7.86,46,46,0,0,1-14.77,3.13C230.34,521.86,229.61,521.87,228.89,521.87Zm-6.55-75.41c-.14,10.78-.13,18.69,0,22.29a26.55,26.55,0,0,0,.53,5.2,30.25,30.25,0,0,0,10.71,18.33,8.15,8.15,0,0,1,3.56,6.19c0,.73.11,2.49-1.89,6.3-.3.57-.61,1.12-1,1.66a33.06,33.06,0,0,0,6.18-1.73,45,45,0,0,0,11-6.18l3.37-2.49,10.91-.42,3.39-.13-.09-1.56q2.4-.15,5-.27l.09,1.66,3.16-.09c8.33-.15,11.33-.19,21.72-.31,13.1-.15,20.54-.33,46.82-1.16,12.58-.4,20.24-.8,21.6-1A24.32,24.32,0,0,0,381.52,485a31,31,0,0,0,7.42-15c.63-3.19.83-5.64.32-11.82l-.47-5.78c-.38-4.61-1.17-13.13-1.43-15.6,0-.17,0-.3-.05-.4l-1.16-5.63,4.43-2.16c6.92-6,9.63-12.6,8.29-20.14a32.31,32.31,0,0,0-5.62-12.78L390.62,392l1.31-4.76a24.46,24.46,0,0,0,.14-11.82c-1.9-8-7.24-14.56-15.44-19.08a54.76,54.76,0,0,0-17.94-5.66,68.22,68.22,0,0,0-23,0,62,62,0,0,0-24.61,10.13,61.37,61.37,0,0,0-5.79,4.66l-7.36,6.36-4.83-9c-2.6-4.86-8.51-9.39-15.08-11.54a37.84,37.84,0,0,0-10.22-1.9c-1-.05-5.13.08-6.11.19a48.38,48.38,0,0,0-23.5,9.54,63.29,63.29,0,0,0-9.5,8.57,40.67,40.67,0,0,0-7.79,11.42,21.92,21.92,0,0,0-1.89,7.19,17.84,17.84,0,0,0,0,2,13.09,13.09,0,0,0,.46,3.46,11.84,11.84,0,0,1,.47,2.46v.11a8,8,0,0,1-3.62,6.86,26.32,26.32,0,0,0-5.16,5.43,22.33,22.33,0,0,0-3.84,9.7,18.79,18.79,0,0,0-.16,3.38,24.54,24.54,0,0,0,1.53,8.13,19,19,0,0,0,8.91,10.27l4.9,2.51-.15,4.75C222.36,445.87,222.35,446.23,222.34,446.46Z"/><g id="Couleur"><path class="cls-4" d="M215.73,442.9s-3.25,42.63,15.68,54c-.08,6,.41,9.4-11.83,14.56,13.44,2.66,24,.93,37.47-8.73,18.62-3.45,64.21-1.16,94.63-3.35,27.57-2,40.9-7,43.73-35,0,0-1.09-29.64-1.7-39.06S215.73,442.9,215.73,442.9Z"/><path class="cls-9" d="M292.44,439.18c-113.26,27.94-90.42-28.25-88.11-34,2.17-5.47,4.24-6.16,9-10.67-3-22.47,16.26-36.11,16.26-36.11,25-26.3,67.43-10.84,68.8,4.18a58.51,58.51,0,0,1,9.22-7.93c3.43-2.33,34.61-24.76,76.27-.94,19.41,11.1,12.75,32.21,11.33,33.79,1.51.42,3.67,2,6.33,8.34,13.14,27.51-9.77,45.39-36.51,51.61-30.44,7.09-40.36-3.1-47.34-16.89C317.73,430.56,309.66,435.25,292.44,439.18Z"/><g id="Reflet"><path class="cls-4" d="M248.05,358.25c-3.41.81-7.08,4.9-8,7.67a11.53,11.53,0,0,1,4.84-2.39c3.77-1,5.33-2.21,5.53-2.85C250.83,359.42,250.35,357.72,248.05,358.25Z"/><path class="cls-4" d="M254.44,355.93c-1.12.05-1.69.68-2.07,1.82a1.38,1.38,0,0,0,0,.92,2.15,2.15,0,0,0,2.21,1.28,2.43,2.43,0,0,0,2.25-2.37C256.76,356.44,255.9,355.87,254.44,355.93Z"/></g><g id="Reflet-2" data-name="Reflet"><path class="cls-4" d="M371.42,439.7a18.61,18.61,0,0,1-11.13.29c3.13-.6,4-1.18,8.28-3.12s5.39-2,6.1-.95C375.19,436.75,375.72,438.37,371.42,439.7Z"/><path class="cls-4" d="M380.18,435.88a2.69,2.69,0,0,1-3.4-.29c-.7-.83-.11-1.86.77-2.67,1.05-1,2.91-1.22,3.79-.17S381.3,435.25,380.18,435.88Z"/></g></g><g id="Contour"><path class="cls-10" d="M396.73,457.52c-.13-1.67-.34-4.27-.47-5.77-.37-4.58-1.17-13.32-1.45-15.87-.2-1.57-.2-1.28-.63-1.11-.09,0-.18-.32-.21,1.73,0,.61,0,1.47,0,2.42-.06,6-.06,11.67,0,17.91s-.07,8.26-.86,12.11a36.9,36.9,0,0,1-5.68,13.51,33.5,33.5,0,0,1-6,6.64,27.79,27.79,0,0,1-11.69,5.83c-2.11.45-2.09.44-12.39,1-5.31.26-12.2.62-15.3.8l-11,.62c-13.79.78-21.43,1.28-32.3,2.11-10.56.8-14.18,1.06-21.69,1.58-1.59.1-6.81.39-11.57.62l-8.67.42-.42.33a49.08,49.08,0,0,1-7.09,4.54A38,38,0,0,1,227,511.06c-.57-.08-1.08-.17-1.16-.19s0-.14.56-.58a21.73,21.73,0,0,0,6.62-8.47,14.86,14.86,0,0,0,1.13-3.78c.09-.57.16-1.07.16-1.12a4,4,0,0,0-.81-.64,35.52,35.52,0,0,1-13.64-18.39,41.38,41.38,0,0,1-2-10.61c-.36-4.78-1.48-17.25-1.84-20.52,0-.38-.24-2.43-.46-4.84a1.7,1.7,0,0,0-.54-.17c0,2.37-.1,4.13-.12,4.47-.14,11-.13,19.06,0,22.84a35,35,0,0,0,.66,6.29A37.95,37.95,0,0,0,229,498.2a4,4,0,0,1,.67.59,14.69,14.69,0,0,1-1,2.5,19.09,19.09,0,0,1-7.61,7.88c-.38.21-1.7.88-3,1.48l-2.28,1.11s5.24,1.65,6,1.84a31.77,31.77,0,0,0,8.95.73,38.32,38.32,0,0,0,12.42-2.63,52.17,52.17,0,0,0,12.76-7.15l1.52-1.12,8.6-.33c4.73-.19,9.86-.35,11.4-.38,8-.14,11.08-.19,21.64-.31,13.26-.15,20.85-.34,47-1.16,11.46-.37,21.24-.82,22.56-1.05A32,32,0,0,0,387,490.05a38.26,38.26,0,0,0,9.26-18.65C397.15,467.12,397.26,463.86,396.73,457.52Z"/><path class="cls-10" d="M406.25,407.11a39.53,39.53,0,0,0-6.94-15.87l-.5-.69.35-1.27a31.61,31.61,0,0,0,.2-15.56c-2.39-10-9.07-18.37-19.11-23.91a62.17,62.17,0,0,0-20.38-6.49,75.88,75.88,0,0,0-25.53.05,69.88,69.88,0,0,0-27.55,11.36,67.31,67.31,0,0,0-6.47,5.2l-.19.16-.42-.78c-3.53-6.6-10.88-12.35-19.35-15.13a45.84,45.84,0,0,0-12.17-2.26c-1.39-.07-6,.07-7.32.22a56,56,0,0,0-27.11,10.95,69.54,69.54,0,0,0-10.6,9.57,47.73,47.73,0,0,0-9.14,13.5,28.71,28.71,0,0,0-2.48,9.47,23.37,23.37,0,0,0,0,3.06,20.27,20.27,0,0,0,.67,4.94c.15.56.26,1.05.26,1.08a4,4,0,0,1-.65.56,34.05,34.05,0,0,0-6.8,7.12,29.87,29.87,0,0,0-5.12,13.06,26.32,26.32,0,0,0-.21,4.46,31.65,31.65,0,0,0,2,10.51,26.61,26.61,0,0,0,12.43,14.35l2.39,1.22a48.84,48.84,0,0,0,10.8,3.38c10,1.95,22.74,1.81,36.06-.41a198.69,198.69,0,0,0,27.36-6.76,232.22,232.22,0,0,0,24-9.22c.68-.32,1.26-.58,1.3-.58s.05,0,.05.09a9,9,0,0,0,.29.94,25.34,25.34,0,0,0,4,7.19,30.23,30.23,0,0,0,16.52,10.14c9.11,2.24,19.67,1.42,31.42-2.43,10-3.29,18.9-7.61,24.87-12.17l1.56-1.21.82-.72C404.41,426.49,408.06,417.27,406.25,407.11Zm-1.67,9.9c-2.44,10-11.57,18.37-26.6,24.5-12.75,5.2-23.53,7.29-32.91,6.36-7.4-.73-13.55-3.25-18.28-7.48a20.7,20.7,0,0,1-7.25-13.58,13.38,13.38,0,0,1,2.81-9.64,14.48,14.48,0,0,1,8.81-4.91,31.41,31.41,0,0,1,10.13-.24c.89.1,1.06.1,1.14,0s.08-.32-.77-.6a27.34,27.34,0,0,0-13.05-1.16c-6.95,1.35-11.66,5.86-13.1,12.54a20.23,20.23,0,0,0,0,7.52c.08.44.16.9.17,1v.24l-.76.23c-1.41.42-6.85,2-9.26,2.64-22.37,6.22-41.14,10-56.77,11.46-2.2.21-8.49.48-10.41.46-8.84-.12-15.24-1.28-20.94-3.77a26.1,26.1,0,0,1-7.55-4.94,22,22,0,0,1-5.37-7.66,32,32,0,0,1-2.52-14.89,29.47,29.47,0,0,1,9.72-19l.84-.76.49,1.31a34.2,34.2,0,0,0,7.61,11.57c1,1.09,3.77,3.58,5,4.54a62,62,0,0,0,8.74,5.77c2.59,1.41,3,1.55,3,1.17,0-.12-.08-.2-.44-.4a76.53,76.53,0,0,1-7.14-4.58,45.91,45.91,0,0,1-12.77-13.87,25.73,25.73,0,0,1-3.14-8.92,30.7,30.7,0,0,1-.16-5.4c.51-5.33,2.62-10.43,6.53-15.74a71.08,71.08,0,0,1,15.27-14.7,51.74,51.74,0,0,1,24.12-9.46c1.38-.15,5.61-.28,7-.21a43,43,0,0,1,12.06,2.34,53.54,53.54,0,0,1,5.08,2.18,30.5,30.5,0,0,1,9.84,7.75c2.92,3.56,4.39,7.23,4.41,11a14,14,0,0,1-1.78,7c-2.29,4.27-6.53,8-12.6,11.14a74.7,74.7,0,0,1-14.43,5.53c-2,.57-2.13.64-2,.91.05.11.12.11.7,0,1-.11,3.49-.52,5.24-.87,10.47-2.07,18.83-6.12,23.8-11.52a19.37,19.37,0,0,0,5.21-10.93,30.9,30.9,0,0,0-.2-5.26,22.68,22.68,0,0,0-1.37-4.49,2.24,2.24,0,0,1-.23-.68s.52-.47,1.1-.94a64,64,0,0,1,22.48-11.83,73.17,73.17,0,0,1,34-1.83c10.26,1.82,17.86,4.84,24.1,9.56a54.94,54.94,0,0,1,4.7,4.31,32.66,32.66,0,0,1,7.75,14.83c1.4,6.18.92,12.83-1.28,17.73s-5.48,7.78-9.48,8.42a12.5,12.5,0,0,1-5.66-.57,26.08,26.08,0,0,1-8.57-5.21c-.84-.71-1.1-.85-1.18-.6s0,.34.89,1.36c3.17,3.86,6.76,6.46,10.34,7.47a13.81,13.81,0,0,0,6.25.37c5.25-1,9.78-5.23,12.27-11.53.31-.77.38-.89.45-.79.27.35,1.34,2.1,1.92,3.15C404.88,402.26,406.28,410.09,404.58,417Z"/><path class="cls-10" d="M284.75,458.9c-.28-.29-.69-.75-.91-1a5.73,5.73,0,0,0-4.53-2.63,5,5,0,0,0-.74,0l-.52.13c-2,.48-3.94,2.58-5,5.3-.32.85-1.26,4.05-1.46,5.05a22.72,22.72,0,0,0-.09,7.89c.93,5.09,3.4,8.71,6.41,9.41a5,5,0,0,0,2.19-.06,1.06,1.06,0,0,1,.74,0,4.71,4.71,0,0,0,3.85-.88,8.34,8.34,0,0,0,1.89-2.17c1.39-2.29,2-5.84,1.85-10.12C288.21,464.8,286.94,461,284.75,458.9Zm.36,2a13.3,13.3,0,0,1,1.41,4.45,28,28,0,0,1,.24,4.82,19,19,0,0,1-.92,4.79c-.28.8-.38,1-.23.39a20.32,20.32,0,0,0,.46-4.33v-1l-.56,0-.57,0,0,1.38a16.71,16.71,0,0,1-1.31,6.64c-.54,1.25-.68,1.46-1.26,1.79a3.54,3.54,0,0,1-2,.6,3.71,3.71,0,0,1-2.17-.5,3.28,3.28,0,0,1-1.64-1.64,14,14,0,0,1-1.49-4.08,27.57,27.57,0,0,1-.35-5.05,19.09,19.09,0,0,1,1.58-6.76,7.53,7.53,0,0,1,3.45-3.77l.33-.12.45.27c1.9,1.16,3.5,3.82,4.42,7.34.13.47.18.62.15.39a16.64,16.64,0,0,0-2.49-6,11.49,11.49,0,0,0-1.93-1.9l-.21-.14.49,0a3.57,3.57,0,0,1,.89.07A6.38,6.38,0,0,1,285.11,460.87Zm-10.05-2a7.27,7.27,0,0,1,2.06-2.23,4,4,0,0,1,3.48-.59,5.19,5.19,0,0,1,1,.38,6.9,6.9,0,0,1,1.49,1.14c.07.12.05.12-.31,0a4.72,4.72,0,0,0-3.58,0,2.29,2.29,0,0,1-1.12.22,4.61,4.61,0,0,0-2.76,1l-.33.26Zm-1.41,3.29a4.93,4.93,0,0,1,3.49-3.94,2.87,2.87,0,0,1,1-.12,1.31,1.31,0,0,1-.26.21,10.94,10.94,0,0,0-3.36,5.84,17.79,17.79,0,0,0-.46,6.1,20.08,20.08,0,0,0,1.31,6.42c.21.56.37,1,.36,1a6.51,6.51,0,0,1-.4-.6C273,473.27,272.26,467,273.65,462.14ZM279,482.3c-1.47.06-3.08-.93-4.36-2.68a18.26,18.26,0,0,1-2.84-10c0-.56,0-.88.05-.7s.09.72.15,1.22a17.52,17.52,0,0,0,2.85,7.84,12.45,12.45,0,0,0,2.11,2.12,5.77,5.77,0,0,1,.81.78,12.44,12.44,0,0,0,1,.95l.53.46H279Zm1.38-.41a5.65,5.65,0,0,1-1.42-.75c-.12-.09-.17-.16-.1-.14a5.42,5.42,0,0,0,2.72-.12,3.84,3.84,0,0,1,.42-.17,3,3,0,0,1-.32.35A3.46,3.46,0,0,1,280.34,481.89Zm1.92.17-.35.06.31-.28a10.63,10.63,0,0,0,2-2.7c.12-.26.43-.87.68-1.36a17.68,17.68,0,0,0,2-8.46,24.33,24.33,0,0,0-.65-6,8.94,8.94,0,0,0-.26-1c-.13-.35.25.26.58.92a17.34,17.34,0,0,1,1.23,3.4,16.74,16.74,0,0,1-.77,10.38C285.8,480,284.09,481.76,282.26,482.06Z"/><path class="cls-10" d="M281.43,461.5a1.92,1.92,0,0,0-1.53-.3,1.08,1.08,0,0,1-.58,0,2.25,2.25,0,0,0-1.17.08,3.1,3.1,0,0,0-1.13.91,7.42,7.42,0,0,0-1,2.1,27,27,0,0,0,.13,9.59,10.79,10.79,0,0,0,.38,1.38,7.39,7.39,0,0,0,1,1.78c.09.11.35.46.57.79a3.61,3.61,0,0,0,1.43,1.39,2.16,2.16,0,0,0,1.79-.07,6.05,6.05,0,0,0,2.39-3.74,20.69,20.69,0,0,0,.51-3.4,33.14,33.14,0,0,0-.19-5.15C283.52,464.18,282.55,462.18,281.43,461.5Zm-2.07.8c.21-.2.3-.2.51-.05s.17.14.17.16l-.43,0-.44,0Zm-2.78,11.19a15.06,15.06,0,0,1-.68-2.89,12.39,12.39,0,0,1,1-6.42,4.82,4.82,0,0,1,1.35-2l.35-.24a2.58,2.58,0,0,1-.28.45,12.11,12.11,0,0,0-1.49,4,14.28,14.28,0,0,0-.3,4.48c.05,1.06.11,2.16.16,2.45l.07.52Zm.89,1.89a8,8,0,0,1-.8-3.25,18.06,18.06,0,0,1,0-3.52c0-.27.05-.19,0,.36v.73l.45,0,.45,0,0-.27c0-.14,0-.51,0-.8a13.31,13.31,0,0,1,.89-5,1.46,1.46,0,0,1,1.71-.46c.67.27,1,.72,1.44,1.94a10,10,0,0,1,.62,3.77,11.92,11.92,0,0,1,0,2.66c-.34,2.64-.93,4.32-1.86,5.25a1.55,1.55,0,0,1-.49.37.85.85,0,0,1-.35-.22,8.72,8.72,0,0,1-1.9-3.93c-.12-.46-.21-.75-.21-.67a15,15,0,0,0,.67,2.52,7,7,0,0,0,1.17,2.06l.32.37-.24,0C278.69,477,278.08,476.46,277.47,475.38Zm4.68,2a4.66,4.66,0,0,1-.58.78,1.59,1.59,0,0,1-2.61.12,1.27,1.27,0,0,1-.28-.29s.13,0,.29,0a1.91,1.91,0,0,0,1.32-.1,5.36,5.36,0,0,1,.78-.23,2.27,2.27,0,0,0,1.08-.51C282.3,477,282.3,477.11,282.15,477.41Zm.73-2a2.91,2.91,0,0,1-1.15,1.75c-.57.38-.7.34-.33-.11a7.57,7.57,0,0,0,1.3-3.19,20.46,20.46,0,0,0-.54-8.39c0-.11,0-.11,0,0a7.22,7.22,0,0,1,.32.87,14,14,0,0,1,.71,3.93A15.46,15.46,0,0,1,282.88,475.43Zm.13-10.06a7.49,7.49,0,0,0-1.63-2.3,7.76,7.76,0,0,1-.95-1.23,1.66,1.66,0,0,1,.56.19,6,6,0,0,1,2,3C283.21,465.72,283.23,465.88,283,465.37Z"/><path class="cls-10" d="M277.26,471.12c0,.07,0,.09.05,0a.14.14,0,0,0,0-.13S277.25,471,277.26,471.12Z"/><path class="cls-10" d="M277.37,471.77c0,.14,0,.19,0,.12a.66.66,0,0,0,0-.24C277.37,471.58,277.36,471.64,277.37,471.77Z"/><path class="cls-10" d="M285.21,467.27a.72.72,0,0,0,0-.25c0-.06,0,0,0,.13S285.19,467.34,285.21,467.27Z"/><path class="cls-10" d="M285.31,467.9a1.07,1.07,0,0,0,0-.25c0-.06,0,0,0,.13S285.29,468,285.31,467.9Z"/><path class="cls-10" d="M285.4,468.49a.14.14,0,0,0,0-.13s0,0,0,.09S285.38,468.55,285.4,468.49Z"/><path class="cls-10" d="M340,463.71a11.44,11.44,0,0,0-2.87-5.15c-.31-.32-.73-.8-.94-1.07a8.9,8.9,0,0,0-2.11-1.86,5,5,0,0,0-3.61-.42c-2,.6-3.69,2.4-4.79,5A44.75,44.75,0,0,0,324,466c-.95,5.38.25,11.29,3,14.6,1.58,1.93,3.69,2.78,5.55,2.25a1.33,1.33,0,0,1,.88,0,4.77,4.77,0,0,0,4.69-1.78,11,11,0,0,0,2.42-5.32,22.62,22.62,0,0,0,.36-6.08A22,22,0,0,0,340,463.71Zm-2.68-3.37a4,4,0,0,1,.91,1.69,17.39,17.39,0,0,1,1,5.65,17.91,17.91,0,0,1-.46,5.6,13,13,0,0,1-.68,2.08s0-.26.09-.55a26.08,26.08,0,0,0,.42-4.77v-.23l-.58,0-.58,0V471a16.91,16.91,0,0,1-1.65,7.66,2.23,2.23,0,0,1-1.18,1.16,4,4,0,0,1-4.19-.22,3.08,3.08,0,0,1-1.3-1.35,15.37,15.37,0,0,1-1.86-6.61c-.44-6,1.71-11.78,4.86-13.12l.4-.18.32.15a8.06,8.06,0,0,1,1.9,1.67,14.82,14.82,0,0,1,2.69,5.67c.14.55.17.64.13.35a18.74,18.74,0,0,0-1.47-4.3,9.91,9.91,0,0,0-2.6-3.25c-.32-.23-.42-.34-.36-.39a3.18,3.18,0,0,1,1.36.11A6.47,6.47,0,0,1,337.28,460.34ZM328,458a5.33,5.33,0,0,1,3.77-2.35,4.35,4.35,0,0,1,.84.06,5.53,5.53,0,0,1,2.7,1.41l.39.38-.49-.18a4.62,4.62,0,0,0-3.43,0,3.26,3.26,0,0,1-1.28.27,4.58,4.58,0,0,0-2.72,1C327.33,458.92,327.36,458.82,328,458Zm-2.53,9.63a17.89,17.89,0,0,1,.81-6.11,4.24,4.24,0,0,1,1-2,4.76,4.76,0,0,1,3-1.67h.35l-.17.13a9.28,9.28,0,0,0-2.71,3.74,16.42,16.42,0,0,0-1.28,7.19,22.58,22.58,0,0,0,1.51,7.89,5.13,5.13,0,0,1,.22.64A13.2,13.2,0,0,1,327,475.3,19,19,0,0,1,325.42,467.64Zm5.52,14.43a4.1,4.1,0,0,1-1.84-.66c-2.1-1.3-3.75-4.29-4.55-8.25a38.59,38.59,0,0,1-.36-4.55,8.73,8.73,0,0,1,.17,1.05,17.56,17.56,0,0,0,2.95,8.2,10.18,10.18,0,0,0,2,2,4.42,4.42,0,0,1,.78.72,8.63,8.63,0,0,0,1,1C331.71,482.16,331.71,482.16,330.94,482.07Zm2.16-.48-.29.15-.45-.21a4,4,0,0,1-1.11-.7,3.71,3.71,0,0,1,.51.06,5.24,5.24,0,0,0,2.21-.19c.4-.16.5-.16.33,0A6.82,6.82,0,0,1,333.1,481.59Zm6.15-4.16c-1.29,2.65-2.81,4.12-4.56,4.45l-.35.06.27-.25a10,10,0,0,0,2.1-2.78l.75-1.47a17.25,17.25,0,0,0,1.69-5.19,19,19,0,0,0,.18-4.62,20,20,0,0,0-.8-5.38c0-.19,0-.19.06-.06s.27.45.46.82a16.83,16.83,0,0,1,.2,14.42Z"/><path class="cls-10" d="M333.28,460.52a3.08,3.08,0,0,0-.93,0c-.34,0-.79,0-1,0a1.43,1.43,0,0,0-.63.07c-1.26.48-2.09,1.84-2.42,3.95a20.2,20.2,0,0,0-.15,4.63c.18,3.93.66,5.81,1.9,7.36a9.53,9.53,0,0,1,.57.81,3.57,3.57,0,0,0,.6.73c2,1.86,4.44-.26,5.15-4.41a25.84,25.84,0,0,0,.07-7.34C336,463.21,334.73,461,333.28,460.52Zm-1.49,1.1.23-.23a1.77,1.77,0,0,1,.27.16l.25.17h-.36a2.07,2.07,0,0,0-.49.07C331.61,461.83,331.64,461.76,331.79,461.62Zm-2.73,10.82c.1.76,0,.68-.27-.29a12.63,12.63,0,0,1,0-7.18,6.78,6.78,0,0,1,2-3.55c.29-.21.28-.14,0,.29a14.5,14.5,0,0,0-1.81,6.17A39.73,39.73,0,0,0,329.06,472.44Zm1.45,3.14c-1-1.24-1.32-2.28-1.44-5.18a18.77,18.77,0,0,1,0-2.24l.06-.43v.63l0,.63h.94l0-.69c-.09-2.12.51-5.22,1.1-5.71a1.5,1.5,0,0,1,1.52-.23,2,2,0,0,1,1,.88c1.18,2.24,1.47,5.95.72,9.33-.4,1.82-1.07,3.16-1.85,3.68l-.23.16-.23-.19a8.6,8.6,0,0,1-2.08-4.36c-.13-.52-.14-.57-.1-.24a13.87,13.87,0,0,0,.72,2.59,6.43,6.43,0,0,0,1.09,1.9l.35.38-.26,0A2.14,2.14,0,0,1,330.51,475.58Zm4,1.16a3.38,3.38,0,0,1-1.14,1.25,1.4,1.4,0,0,1-1.36.07c-.35-.16-1.13-.82-.86-.74a2.11,2.11,0,0,0,1.73-.16,1.68,1.68,0,0,1,.57-.16,2.19,2.19,0,0,0,1-.45C334.72,476.39,334.72,476.4,334.55,476.74Zm1.13-4.31a16,16,0,0,1-.52,2.83,3.07,3.07,0,0,1-1.47,1.47c-.21.06-.21.06.11-.32a8.82,8.82,0,0,0,1.52-4.49,17.13,17.13,0,0,0,0-2.35,18.83,18.83,0,0,0-.56-4,5.67,5.67,0,0,1-.16-.73,5.79,5.79,0,0,1,.51,1.39A19.53,19.53,0,0,1,335.68,472.43Zm-.34-8a6.57,6.57,0,0,0-1.35-1.9,9.44,9.44,0,0,1-.83-1l-.32-.46.19,0a1.78,1.78,0,0,1,.48.22,5.63,5.63,0,0,1,1.83,2.76C335.66,465,335.66,465.12,335.34,464.47Z"/><path class="cls-10" d="M329.65,470.1c0,.08,0,.1.05,0s0-.11,0-.13S329.64,470,329.65,470.1Z"/><path class="cls-10" d="M329.77,470.86c0,.15,0,.21,0,.12a.87.87,0,0,0,0-.28C329.77,470.64,329.75,470.71,329.77,470.86Z"/><path class="cls-10" d="M337.62,466.88a.5.5,0,0,0,0-.21s0,0,0,.13S337.61,467,337.62,466.88Z"/><path class="cls-10" d="M337.72,467.44a1.07,1.07,0,0,0,0-.25c0-.06,0,0,0,.13S337.7,467.51,337.72,467.44Z"/><path class="cls-10" d="M337.78,468.09c0,.13,0,.19,0,.12a.71.71,0,0,0,0-.25C337.79,467.9,337.78,468,337.78,468.09Z"/></g></g></svg>