<?xml version="1.0" encoding="UTF-8"?>
<svg id="Layer_1" xmlns="http://www.w3.org/2000/svg" viewBox="0 0 50.57 50.57">
  <defs>
    <style>
      .cls-1 {
        fill: none;
      }

      .cls-1, .cls-2 {
        stroke: #30408c;
        stroke-miterlimit: 10;
      }

      .cls-2 {
        fill: #30408c;
      }
    </style>
  </defs>
  <path class="cls-2" d="M30.37,49.55c4.43-.92,8.42-3.03,11.64-5.98-2.69-6.61-9.18-11.28-16.73-11.28s-14.04,4.67-16.73,11.27c3.21,2.96,7.21,5.06,11.64,5.99"/>
  <path class="cls-1" d="M20.19,49.55c1.64.34,3.35.52,5.09.52s3.45-.18,5.09-.52"/>
  <path class="cls-1" d="M25.28.5C11.59.5.5,11.6.5,25.29c0,6.64,2.61,12.66,6.87,17.11.37.4.77.79,1.18,1.16,2.69-6.6,9.18-11.27,16.73-11.27s14.04,4.67,16.73,11.28c.41-.37.81-.76,1.19-1.17,4.25-4.45,6.87-10.47,6.87-17.11C50.07,11.6,38.97.5,25.28.5ZM16,21.45c0-5.11,4.17-9.28,9.28-9.28s9.28,4.17,9.28,9.28-4.17,9.29-9.28,9.29-9.28-4.17-9.28-9.29Z"/>
  <g>
    <path class="cls-2" d="M29.82,31.28c3.72-1.7,6.29-5.48,6.29-9.83,0-5.97-4.85-10.83-10.83-10.83s-10.83,4.86-10.83,10.83c0,4.35,2.58,8.13,6.29,9.83-5.99,1.42-10.92,5.6-13.37,11.12.37.4.77.79,1.18,1.16,2.69-6.6,9.18-11.27,16.73-11.27s14.04,4.67,16.73,11.28c.41-.37.81-.76,1.19-1.17-2.45-5.52-7.39-9.7-13.38-11.12ZM16,21.45c0-5.11,4.17-9.28,9.28-9.28s9.28,4.17,9.28,9.28-4.17,9.29-9.28,9.29-9.28-4.17-9.28-9.29Z"/>
    <path class="cls-2" d="M34.56,21.45c0,5.12-4.17,9.29-9.28,9.29s-9.28-4.17-9.28-9.29,4.17-9.28,9.28-9.28,9.28,4.17,9.28,9.28Z"/>
  </g>
</svg>