<svg width="40" height="61" viewBox="0 0 40 61" fill="none" xmlns="http://www.w3.org/2000/svg">
<path d="M20.0008 5.90313e-08C17.3742 -0.000203039 14.7733 0.523669 12.3466 1.5417C9.91987 2.55973 7.71492 4.05198 5.85764 5.93322C4.00036 7.81447 2.52712 10.0479 1.52206 12.5059C0.516997 14.9639 -0.000200453 17.5984 5.82793e-08 20.2588C5.82793e-08 36.1137 15.2696 55.1926 19.271 59.8796C19.486 60.1287 19.7895 60.2814 20.1153 60.3046C20.4411 60.3278 20.7627 60.2195 21.0099 60.0033L21.132 59.8796C25.08 55.1741 40 36.1137 40 20.2573C40 17.5971 39.4827 14.9629 38.4777 12.5052C37.4726 10.0474 35.9995 7.81429 34.1424 5.93322C32.2853 4.05216 30.0806 2.56002 27.6541 1.54199C25.2277 0.52397 22.6271 5.90313e-08 20.0008 5.90313e-08Z" fill="#98D2F5"/>
<path d="M19.0701 23.0152C19.4186 23.0152 19.7109 22.9 19.9471 22.6696C20.1832 22.4392 20.3009 22.1544 20.3001 21.8152V15.8152C20.3001 15.4752 20.182 15.1904 19.9458 14.9608C19.7097 14.7312 19.4178 14.616 19.0701 14.6152C18.7224 14.6144 18.4305 14.7296 18.1943 14.9608C17.9581 15.192 17.8401 15.4768 17.8401 15.8152V21.8152C17.8401 22.1552 17.9581 22.4404 18.1943 22.6708C18.4305 22.9012 18.7224 23.016 19.0701 23.0152ZM22.7601 21.2152C23.1086 21.2152 23.4009 21.1 23.6371 20.8696C23.8732 20.6392 23.9909 20.3544 23.9901 20.0152V17.0152C23.9901 16.6752 23.872 16.3904 23.6359 16.1608C23.3997 15.9312 23.1078 15.816 22.7601 15.8152C22.4124 15.8144 22.1205 15.9296 21.8843 16.1608C21.6482 16.392 21.5301 16.6768 21.5301 17.0152V20.0152C21.5301 20.3552 21.6482 20.6404 21.8843 20.8708C22.1205 21.1012 22.4124 21.216 22.7601 21.2152ZM15.38 20.6152C15.7285 20.6152 16.0209 20.5 16.257 20.2696C16.4932 20.0392 16.6109 19.7544 16.6101 19.4152V17.0152C16.6101 16.6752 16.492 16.3904 16.2558 16.1608C16.0196 15.9312 15.7277 15.816 15.38 15.8152C15.0324 15.8144 14.7404 15.9296 14.5043 16.1608C14.2681 16.392 14.15 16.6768 14.15 17.0152V19.4152C14.15 19.7552 14.2681 20.0404 14.5043 20.2708C14.7404 20.5012 15.0324 20.616 15.38 20.6152ZM12.92 32.6152C12.5715 32.6152 12.2796 32.5 12.0443 32.2696C11.8089 32.0392 11.6908 31.7544 11.69 31.4152V27.4552C10.5215 26.4152 9.61459 25.2004 8.96925 23.8108C8.3239 22.4212 8.00082 20.956 8 19.4152C8 16.4152 9.07626 13.8652 11.2288 11.7652C13.3813 9.66523 15.995 8.61523 19.0701 8.61523C21.6326 8.61523 23.9032 9.35043 25.8819 10.8208C27.8605 12.2912 29.1467 14.206 29.7404 16.5652L31.3394 22.7152C31.4419 23.0952 31.3701 23.4404 31.1241 23.7508C30.8781 24.0612 30.5501 24.216 30.1401 24.2152H27.6801V27.8152C27.6801 28.4752 27.4395 29.0404 26.9581 29.5108C26.4768 29.9812 25.8974 30.216 25.2201 30.2152H22.7601V31.4152C22.7601 31.7552 22.642 32.0404 22.4058 32.2708C22.1697 32.5012 21.8778 32.616 21.5301 32.6152H12.92Z" fill="black"/>
</svg>
