<svg width="40" height="61" viewBox="0 0 40 61" fill="none" xmlns="http://www.w3.org/2000/svg">
<path d="M20.0008 5.90313e-08C17.3742 -0.000203039 14.7733 0.523669 12.3466 1.5417C9.91987 2.55973 7.71492 4.05198 5.85764 5.93322C4.00036 7.81447 2.52712 10.0479 1.52206 12.5059C0.516997 14.9639 -0.000200453 17.5984 5.82793e-08 20.2588C5.82793e-08 36.1137 15.2696 55.1926 19.271 59.8796C19.486 60.1287 19.7895 60.2814 20.1153 60.3046C20.4411 60.3278 20.7627 60.2195 21.0099 60.0033L21.132 59.8796C25.08 55.1741 40 36.1137 40 20.2573C40 17.5971 39.4827 14.9629 38.4777 12.5052C37.4726 10.0474 35.9995 7.81429 34.1424 5.93322C32.2853 4.05216 30.0806 2.56002 27.6541 1.54199C25.2277 0.52397 22.6271 5.90313e-08 20.0008 5.90313e-08Z" fill="#FEDA7A"/>
<path d="M13.9694 8.6223C13.9694 8.6223 21.1525 8.18486 20.4848 14.1917C20.4848 14.1917 21.5133 10.196 26.031 12.0258C26.031 12.0258 25.0779 15.9734 21.2925 15.0132C21.2925 15.0132 22.0786 12.1005 24.8517 11.9938C24.8517 11.9938 22.7033 11.4443 20.431 14.5971C20.431 14.5971 19.3648 9.55587 15.391 9.27846C15.391 9.27846 19.4402 10.3134 19.5694 15.0132C19.5694 15.0185 13.8402 15.3866 13.9694 8.6223ZM30.7694 25.4584C30.7694 28.0457 30.2471 30.5423 29.0463 32.5161C26.774 34.1645 23.3925 35.0768 20.0002 35.0768C16.6133 35.0768 13.2263 34.1645 10.954 32.5161C9.75326 30.5423 9.23096 28.0457 9.23096 25.4584C9.23096 22.8765 10.184 20.4065 11.3848 18.4327C13.6571 16.7843 16.6133 15.8401 20.0002 15.8401C23.3925 15.8401 26.3433 16.779 28.6156 18.4327C29.8163 20.4065 30.7694 22.8765 30.7694 25.4584ZM15.6925 31.0224C15.6925 30.1956 15.0194 29.5287 14.1848 29.5287C13.3502 29.5287 12.6771 30.1956 12.6771 31.0224C12.6771 31.8493 13.3502 32.5161 14.1848 32.5161C15.0194 32.5161 15.6925 31.8493 15.6925 31.0224ZM15.6925 27.4909C15.6925 26.664 15.0194 25.9972 14.1848 25.9972C13.3502 25.9972 12.6771 26.664 12.6771 27.4909C12.6771 28.3178 13.3502 28.9846 14.1848 28.9846C15.0194 28.9846 15.6925 28.3178 15.6925 27.4909ZM15.6925 23.9594C15.6925 23.1325 15.0194 22.4657 14.1848 22.4657C13.3502 22.4657 12.6771 23.1325 12.6771 23.9594C12.6771 24.7863 13.3502 25.4531 14.1848 25.4531C15.0194 25.4531 15.6925 24.7863 15.6925 23.9594ZM19.5694 31.0224C19.5694 30.1956 18.8963 29.5287 18.0617 29.5287C17.2271 29.5287 16.554 30.1956 16.554 31.0224C16.554 31.8493 17.2271 32.5161 18.0617 32.5161C18.8963 32.5161 19.5694 31.8493 19.5694 31.0224ZM19.5694 27.4909C19.5694 26.664 18.8963 25.9972 18.0617 25.9972C17.2271 25.9972 16.554 26.664 16.554 27.4909C16.554 28.3178 17.2271 28.9846 18.0617 28.9846C18.8963 28.9846 19.5694 28.3178 19.5694 27.4909ZM19.5694 23.9594C19.5694 23.1325 18.8963 22.4657 18.0617 22.4657C17.2271 22.4657 16.554 23.1325 16.554 23.9594C16.554 24.7863 17.2271 25.4531 18.0617 25.4531C18.8963 25.4531 19.5694 24.7863 19.5694 23.9594ZM23.4463 31.0224C23.4463 30.1956 22.7733 29.5287 21.9386 29.5287C21.104 29.5287 20.431 30.1956 20.431 31.0224C20.431 31.8493 21.104 32.5161 21.9386 32.5161C22.7733 32.5161 23.4463 31.8493 23.4463 31.0224ZM23.4463 27.4909C23.4463 26.664 22.7733 25.9972 21.9386 25.9972C21.104 25.9972 20.431 26.664 20.431 27.4909C20.431 28.3178 21.104 28.9846 21.9386 28.9846C22.7733 28.9846 23.4463 28.3178 23.4463 27.4909ZM23.4463 23.9594C23.4463 23.1325 22.7733 22.4657 21.9386 22.4657C21.104 22.4657 20.431 23.1325 20.431 23.9594C20.431 24.7863 21.104 25.4531 21.9386 25.4531C22.7733 25.4531 23.4463 24.7863 23.4463 23.9594ZM27.3233 31.0224C27.3233 30.1956 26.6502 29.5287 25.8156 29.5287C24.981 29.5287 24.3079 30.1956 24.3079 31.0224C24.3079 31.8493 24.981 32.5161 25.8156 32.5161C26.6502 32.5161 27.3233 31.8493 27.3233 31.0224ZM27.3233 27.4909C27.3233 26.664 26.6502 25.9972 25.8156 25.9972C24.981 25.9972 24.3079 26.664 24.3079 27.4909C24.3079 28.3178 24.981 28.9846 25.8156 28.9846C26.6502 28.9846 27.3233 28.3178 27.3233 27.4909ZM27.3233 23.9594C27.3233 23.1325 26.6502 22.4657 25.8156 22.4657C24.981 22.4657 24.3079 23.1325 24.3079 23.9594C24.3079 24.7863 24.981 25.4531 25.8156 25.4531C26.6502 25.4531 27.3233 24.7863 27.3233 23.9594ZM28.6156 21.8469C28.3571 20.6572 28.2171 19.8784 27.754 18.8595C25.6648 17.7979 22.881 17.1524 20.0002 17.1524C17.1194 17.1524 14.3356 17.7979 12.2463 18.8595C11.7725 19.8997 11.6433 20.6679 11.3848 21.8469C13.6571 21.4254 16.6994 21.0573 20.0002 21.0573C23.301 21.0573 26.3433 21.4254 28.6156 21.8469Z" fill="black"/>
</svg>
