<?xml version="1.0" encoding="UTF-8"?>
<svg id="_4" data-name="4" xmlns="http://www.w3.org/2000/svg" viewBox="0 0 983.4 647.98">
  <defs>
    <style>
      .cls-1 {
        fill: #facdd9;
      }

      .cls-2 {
        fill: #99d1f2;
      }
    </style>
  </defs>
  <path class="cls-1" d="M304.45,518.3c4.31-4.43,8.56-8.92,13.01-13.21,2.23-2.16,4.51-4.27,6.87-6.28,1.1-.94,4.17-4.57.24-.35,1.3-1.39,3.4-2.49,4.99-3.51,1.01-.66,6.88-4.95,7.93-4.41l-2.6,1.07c.94-.37,1.89-.72,2.85-1.04,1.46-.48,2.96-.78,4.42-1.24,4.95-1.59-4.96.07-.18-.11,1.34-.05,2.66-.16,4-.14,1.24.02,2.62.33,3.84.24-3.9-.57-4.67-.64-2.3-.2.79.17,1.58.37,2.36.6,2.23.65,4,2.43-.88-.63.98.61,2.15,1.02,3.16,1.59s1.99,1.25,2.98,1.88c3.69,2.34-3.93-3.71-.86-.58.83.85,1.73,1.63,2.55,2.5,1.5,1.61,2.29,4.16-.43-.85,1.37,2.52,3.23,4.77,4.55,7.36,1.19,2.34.58,4.19-.18-.73.18,1.17.95,2.52,1.31,3.66.82,2.52,1.47,5.09,1.96,7.69l.24,1.32c.38,2.43.3,1.78-.24-1.95-.22,1.14.27,2.93.33,4.1.17,3.26.09,6.52-.17,9.77l-.13,1.6c-.28,2.53-.21,2.13.2-1.21.33.97-.68,3.73-.9,4.73-.7,3.15-1.59,6.25-2.64,9.29-.5,1.44-.94,3.22-1.71,4.54,2.96-5.08.16-.57-.39.55-1.67,3.41-3.54,6.73-5.58,9.93-.87,1.37-1.78,2.73-2.72,4.06-.71,1.01-3.24,5.59-.37.65-1.54,2.65-4.24,5.09-6.34,7.31s-4.5,4.54-6.83,6.72c-1.16,1.08-2.34,2.13-3.54,3.16-.79.68-1.6,1.34-2.41,1.99,2.52-1.91,2.81-2.14.87-.69-4.98,3.49-10.03,6.74-15.47,9.47-1.33.67-2.7,1.28-4.04,1.93-4.7,2.27,4.8-1.73-.11.04-3.26,1.18-6.5,2.38-9.84,3.36-5.75,1.69-11.58,2.84-17.47,3.88-5.25.92,5.33-.51.02,0-1.51.15-3.01.32-4.51.46-3.54.31-7.09.5-10.64.6-6.16.16-12.33.02-18.49-.36-3.11-.19-6.21-.45-9.31-.76-1.55-.16-3.11-.33-4.66-.51-1.04-.12-2.07-.25-3.11-.39,3.39.46,3.84.52,1.33.16-12.25-1.93-24.51-4.06-36.54-7.08-11.39-2.85-22.6-6.47-33.49-10.87-2.05-.83-4.15-3.01.22.12-1.03-.74-2.66-1.16-3.82-1.69-2.53-1.14-5.05-2.33-7.54-3.56-5.37-2.66-10.64-5.52-15.79-8.59-4.73-2.82-9.35-5.81-13.85-8.97-2.14-1.51-4.32-3.69-6.64-4.86,4.96,2.5,1.81,1.41.24.14-1.42-1.14-2.83-2.31-4.23-3.49-8.72-7.39-16.83-15.51-24.17-24.27-.89-1.06-1.76-2.12-2.62-3.2l-.86-1.08c-1.47-1.87-1.14-1.45.98,1.28-.84-2.27-3.49-4.72-4.88-6.73-3.46-4.98-6.68-10.13-9.65-15.41-2.79-4.96-5.37-10.04-7.72-15.22-.32-.71-1.12-3.57-1.74-3.95l1.15,2.71c-.37-.9-.73-1.79-1.09-2.69-1.26-3.18-2.43-6.4-3.52-9.64-4.06-12.03-6.85-24.6-9.17-37.07-.57-3.08-1.11-6.16-1.6-9.25-.25-1.55-.49-3.11-.71-4.67s-1.63-6.28-.06-.28c-1.69-6.44-1.61-13.98-2.12-20.61-2.06-27-1.46-54.2,1.62-81.1.19-1.62.39-3.24.58-4.86.66-5.63-.77,5.12.06-.48.44-2.95.87-5.91,1.35-8.85,1.09-6.67,2.33-13.31,3.74-19.92,2.78-13.04,6.19-25.95,10.29-38.65,1.93-5.98,4.01-11.91,6.25-17.78,1.06-2.77,1.9-6.13,3.45-8.66-3.04,4.98-.46,1.09.15-.3.82-1.87,1.65-3.74,2.51-5.6,5.21-11.34,11.07-22.41,17.67-33.01,3.12-5.01,6.4-9.92,9.84-14.72,1.53-2.13,3.2-5.46,5.25-7.09l-1.72,2.23c.6-.77,1.21-1.54,1.82-2.3,1.22-1.53,2.46-3.04,3.72-4.55,7.83-9.38,16.26-18.24,25.21-26.55,4.3-3.99,8.71-7.85,13.23-11.57,2.14-1.76,4.42-4.18,6.87-5.5-5.08,2.73-1.2.95.11-.04,1.57-1.17,3.15-2.33,4.74-3.47,9.96-7.14,20.34-13.7,31.06-19.64,5.16-2.86,10.4-5.58,15.71-8.16,2.66-1.29,5.33-2.55,8.03-3.77,1.35-.61,2.7-1.21,4.05-1.8.9-.39,1.81-.79,2.72-1.17-3.1,1.3-3.53,1.49-1.28.55,11.49-4.59,23.1-8.75,35-12.17,11.91-3.42,24.02-6.2,36.23-8.3,2.94-.51,5.88-.94,8.83-1.4,5.25-.82-5.35.63-.07,0,1.48-.18,2.96-.37,4.44-.54,6.53-.74,13.07-1.28,19.63-1.64,13.15-.71,26.36-.83,39.48.39,1.56.15,3.12.33,4.67.5,5.45.58-5.18-.92.2.05,3.05.55,6.1,1.05,9.12,1.73s5.97,1.44,8.91,2.32c2.7.81,7.95,1.63,10.05,3.54l-2.58-1.08c.93.41,1.84.83,2.76,1.27,1.37.66,2.72,1.35,4.06,2.07,2.69,1.45,5.3,3.03,7.83,4.74,1.18.8,2.78,1.65,3.76,2.69-3.99-4.24-.72-.49.28.41s1.91,1.81,2.82,2.76c1.55,1.63,3.6,5.84.55.25,1.14,2.08,2.74,3.93,3.89,6.04.54,1,.94,2.17,1.55,3.11-3.13-4.88-1.34-3.34-.6-1.15s1.19,4.28,1.69,6.47c.97,4.23-.45-5.94-.2-1.62.08,1.46.2,2.92.21,4.38,0,2.4-1.45,9.56.25,1.67-.47,2.16-.77,4.33-1.35,6.48s-1.51,4.19-2.11,6.32c1.71-6.15,1.37-3.14.47-1.28-.65,1.35-1.35,2.68-2.1,3.98-1.13,1.97-2.4,3.82-3.67,5.7-2.44,3.6,3.61-4.22.74-.96-.75.85-1.48,1.73-2.25,2.57-1.55,1.68-3.18,3.28-4.89,4.79-.85.75-1.8,1.42-2.63,2.2,5.07-4.8,1.58-1.26-.07-.17-1.91,1.26-3.89,2.41-5.93,3.45-1.01.52-2.11.92-3.1,1.47,5.73-3.15,2.94-1.23,1.1-.59-2.18.76-4.4,1.38-6.65,1.87-1.13.24-2.31.35-3.43.62,7.08-1.72,2.32-.34.15-.25-2.3.09-4.94-.51-7.17-.2l3.27.44c-.98-.17-1.96-.37-2.93-.6-1.43-.34-2.81-.85-4.23-1.23-4.82-1.3,4.39,2.42.02.06-1.27-.69-2.57-1.3-3.82-2.03s-2.47-1.5-3.66-2.32c-.8-.55-1.58-1.11-2.36-1.69,2.62,2.05,3,2.31,1.13.79-8.78-8.04-16.27-16.92-23.67-26.24s-24.24-8.26-31.82,0c-9.02,9.83-7.85,21.94,0,31.82,18.84,23.71,41.31,46.79,74.03,46.22,27.73-.48,52.12-15.86,67.66-38.24s18.01-50.99,6.74-75.46c-12.58-27.31-44.22-43.19-72.28-49.15s-58.96-5.47-88.01-1.78c-28.15,3.58-55.7,9.71-82.3,19.69-52.21,19.58-100.55,50.68-137.11,93.12-38.25,44.4-62.31,98.85-74.14,156.01-12.33,59.57-13.27,121.89-.38,181.46,5.88,27.16,15.66,53.52,30.81,76.94s34.45,43.23,56.82,59.93c43.81,32.7,99.46,48.3,153.49,51.85,30.12,1.98,60.67-2.22,87.9-15.66,29.37-14.49,52.43-40.92,64.42-71.12,11.22-28.25,8.9-62.94-9.95-87.34-9.54-12.35-23.17-20.71-38.7-22.8-16.86-2.27-33.68,2.24-47.85,11.62-12.65,8.37-23.07,19.18-33.58,29.97-8.22,8.44-9.04,23.52,0,31.82s23.05,9.01,31.82,0h0Z"/>
  <path class="cls-1" d="M457.7,113.73c23.43-14.45,47.49-27.99,72.7-39.09,1.43-.63,2.88-1.37,4.36-1.89-5.77,2.04-.71.31.41-.15,2.87-1.17,5.75-2.3,8.64-3.4,5.67-2.15,11.4-4.15,17.19-5.99,11.24-3.57,22.68-6.51,34.27-8.7,2.86-.54,5.73-1.03,8.61-1.48,1.36-.21,3-.23,4.32-.64-5.75,1.79-2.15.29-.21.07,5.8-.68,11.63-1.16,17.46-1.46,11.95-.6,23.94-.4,35.87.53,3.08.24,6.16.53,9.23.86,1.55.17,3.11.37,4.66.54,5.26.6-3.93-.59-.5-.08,6.68,1,13.33,2.09,19.96,3.41,13.36,2.68,26.48,6.22,39.58,9.95,10.61,3.02,21.14,6.33,31.54,10,4.6,1.62,9.18,3.32,13.73,5.08,2.44.95,4.87,1.92,7.29,2.91,1.37.56,5.65,2.57-.59-.27,1.56.71,3.15,1.35,4.72,2.04,17.99,7.91,35.41,17.17,51.72,28.16,3.57,2.4,7.08,4.89,10.53,7.46.93.69,1.84,1.42,2.78,2.1-5.68-4.1-2.13-1.64-.9-.67,1.95,1.55,3.88,3.13,5.79,4.74,6.81,5.75,13.31,11.86,19.43,18.34,3.1,3.28,6.1,6.65,8.99,10.11,1.45,1.73,2.85,3.49,4.26,5.25,2.71,3.4-3.35-4.49-.77-.98.67.91,1.35,1.81,2.02,2.72,5.36,7.35,10.25,15.03,14.66,22.98,2.24,4.04,4.35,8.15,6.34,12.33.92,1.93,1.81,3.88,2.68,5.84.4.9.76,1.81,1.17,2.69-3.15-6.81-.63-1.47-.01.09,3.6,9.04,6.64,18.29,9.17,27.68,2.67,9.92,4.78,19.99,6.38,30.13.3,1.92.99,10.98.52,3.28.16,2.7.66,5.42.94,8.12.58,5.56,1.02,11.14,1.34,16.73,1.54,26.87-.09,54.18-3.29,80.88-.21,1.72-.36,3.47-.65,5.18,1.01-6.01.01-.17-.15.91-.42,2.87-.86,5.73-1.33,8.59-1.22,7.42-2.62,14.82-4.21,22.17-2.94,13.56-6.53,26.98-10.86,40.16-1.98,6.04-4.12,12.04-6.41,17.97-.63,1.62-1.26,3.23-1.91,4.84-.36.89-2.5,6.4-.4,1.04-1.48,3.77-3.26,7.45-4.98,11.12-5.91,12.58-12.67,24.68-19.99,36.49-3.01,4.85-6.15,9.6-9.45,14.25-1.79,2.52-3.55,5.16-5.55,7.53,3.92-4.63.39-.56-.34.34-1.14,1.41-2.3,2.81-3.48,4.2-7.86,9.26-16.47,17.89-25.89,25.56-1.31,1.07-3.85,4.41-.3.29-.9,1.05-2.6,1.93-3.73,2.73-2.51,1.79-5.07,3.5-7.68,5.14-5.23,3.28-10.65,6.25-16.25,8.84-1.43.66-5.11,3.33-.31.22-1.2.78-3.01,1.21-4.35,1.7-2.57.96-5.18,1.86-7.78,2.73-4.53,1.52-9.14,2.8-13.8,3.87-2.35.54-4.72,1.02-7.1,1.44-1.19.21-2.39.39-3.59.6-4.57.78,5.78-.65,1.17-.14-4.85.54-9.69.95-14.57,1.09s-9.74.04-14.59-.3c-2.02-.14-4.03-.32-6.04-.54-1.75-.19-5.83-1.24,1.19.19-1.57-.32-3.18-.49-4.75-.77-4.7-.85-9.36-1.93-13.94-3.28-1.89-.56-3.77-1.16-5.63-1.8-1.11-.39-2.22-.79-3.31-1.21-5.62-2.14,3.52,1.68-.04.05-4.22-1.94-8.35-3.99-12.32-6.41-1.64-1-3.24-2.04-4.82-3.13-.93-.64-1.83-1.41-2.79-2.01,5.98,3.68,1.56,1.22.08-.04-3.2-2.72-6.21-5.66-8.99-8.81-.76-.86-1.49-1.76-2.23-2.64-2.85-3.35,3.19,4.52.7.88-1.55-2.26-3.09-4.5-4.48-6.86-1.2-2.06-2.32-4.17-3.35-6.33-.31-.65-1.9-4.42-.35-.64s0-.08-.24-.73c-1.99-5.31-2.62-10.88-4.33-16.19,1.8,5.59.38,2.81.22.57-.1-1.37-.15-2.75-.17-4.12-.03-2.31.04-4.62.21-6.92s1.68-4.73-.19.44c.44-1.22.46-2.84.71-4.12.64-3.18,1.46-6.32,2.49-9.4.31-.94,1.48-2.93,1.42-3.89.18,2.94-1.76,3.95-.35.99,1.07-2.24,2.25-4.41,3.56-6.51.49-.78,2.09-2.44,2.23-3.32l-1.92,2.45c.54-.69,1.1-1.36,1.68-2.02.86-.98,1.75-1.93,2.68-2.84.62-.6,1.25-1.19,1.89-1.76,1.8-1.51,1.28-1.15-1.56,1.08,1.54-.68,3.15-2.05,4.6-3.01,2.27-1.49,3.02.25-2.28.85.79-.09,1.74-.61,2.52-.83.88-.25,1.8-.38,2.67-.64,3.74-1.11-6.2.36-2.24.26,2.31-.06,4.57-.25,6.89-.12.67.04,1.34.11,2.02.16,4.14.28-6.01-1.14-1.94-.23,2.02.45,4.02.87,5.99,1.51.98.31,1.93.75,2.91,1.04-6.32-1.88-3.49-1.52-1.64-.58.9.46,1.79.96,2.66,1.49.57.35,1.14.72,1.69,1.1,1.83,1.32,1.11.74-2.15-1.71.51,1.06,2.67,2.63,3.57,3.43,2.85,2.54-2.78-4.86-1.12-1.43.4.82.98,1.82,1.5,2.56,2.21,3.21-1.71-5.49-.72-1.67.26,1,.53,2,.79,3,1.05,4.03-.16-5.96-.29-1.69-.03,1.15.01,2.29-.05,3.43-.6,11.77,10.78,23.03,22.5,22.5,12.7-.57,21.86-9.89,22.5-22.5,1.36-26.81-19.93-48.45-45.18-53.68-11.15-2.31-23.54-2.81-34.44,1.04-14.03,4.96-24.84,15.05-33.16,27.16-15.52,22.6-19.35,54.09-11.58,80.12,7.23,24.21,22.19,43.93,42.47,58.69,36.46,26.54,88.22,30.14,130.69,18.62,27.26-7.39,51.73-21.1,72.96-39.62,21.16-18.47,38.06-41.62,52.31-65.68,31.76-53.61,47.54-114.68,53.22-176.35,4.65-50.55,2.89-102.85-13.2-151.41-13.31-40.17-35.96-76.82-67.12-105.6-32.91-30.4-72.58-51.46-114.29-67.11-49.6-18.61-103.4-32.02-156.68-30.2-55.46,1.89-107.66,20.62-156.18,46.63-13.14,7.04-26,14.6-38.69,22.42-10.01,6.18-14.76,20.4-8.07,30.78s20.07,14.68,30.78,8.07h0Z"/>
  <path class="cls-1" d="M633.17,509.48c-2.07,1.9-4.16,3.76-6.33,5.55-.58.48-3.55,2.8-1.05.89s-.35.22-.96.67c-3.57,2.57-7.27,4.94-11.06,7.17-7.16,4.22-14.53,8.05-21.54,12.53s-13.67,8.49-20.88,12.13c-3.67,1.85-7.42,3.55-11.17,5.23-2.75,1.23,4.13-1.66,1.31-.56-.92.36-1.82.74-2.74,1.1-2.31.91-4.63,1.77-6.96,2.6-8.35,2.95-16.88,5.4-25.52,7.32-4.04.9-8.11,1.68-12.2,2.35-1.03.17-2.06.32-3.09.48-4.03.65.74-.15,1.31-.16-2.6.04-5.28.62-7.87.85-9.39.84-18.82,1.08-28.24.7-4.69-.19-9.36-.53-14.03-1.02-1.74-.18-8.21-.21-2.34-.24-2.68.01-5.75-.9-8.37-1.38-10.87-2.02-21.59-4.86-32.03-8.5-2.84-.99-5.66-2.03-8.46-3.13-1.1-.43-2.34-.82-3.38-1.36,4.73,2.46-.67-.33-1.38-.64-5.73-2.58-11.33-5.41-16.84-8.42-10.33-5.63-24.99-2.89-30.78,8.07-5.56,10.52-2.96,24.77,8.07,30.78,39.82,21.71,85.17,33.25,130.62,30.67,39.41-2.24,78.61-13.69,112.26-34.53,19.1-11.83,38.79-22,55.49-37.32,8.7-7.98,8.69-23.84,0-31.82-9.3-8.54-22.54-8.51-31.82,0h0Z"/>
  <path class="cls-2" d="M313.85,309.67c39.21,10.71,83.38,3.81,116.75-19.69,9.6-6.76,15.04-19.97,8.07-30.78-6.15-9.53-20.49-15.32-30.78-8.07-3.5,2.47-7.1,4.77-10.85,6.85-1.87,1.04-3.77,2.02-5.69,2.95-.96.47-1.93.92-2.91,1.36-2.27,1-1.95.87.95-.39-2.61,1.92-7.47,2.76-10.61,3.68-4.11,1.21-8.28,2.2-12.49,2.97-1.05.19-2.11.37-3.17.53-2.52.37-2.12.32,1.21-.16-1.35.8-4.83.46-6.39.56-3.74.22-7.48.27-11.23.15-2.14-.07-4.27-.21-6.4-.4-1.06-.1-2.13-.21-3.19-.33,3.33.47,3.74.52,1.22.14-4.22-.79-8.38-1.62-12.53-2.75-11.34-3.1-24.98,3.85-27.68,15.71s3.56,24.36,15.71,27.68h0Z"/>
  <path class="cls-2" d="M558.12,245.98c37.99,12.57,82.42,6.42,115.37-16.38,9.66-6.68,15-20.03,8.07-30.78-6.19-9.6-20.43-15.23-30.78-8.07-3.52,2.44-7.15,4.7-10.93,6.72-1.89,1.01-3.83,1.9-5.75,2.85-4.47,2.22,3.79-1.32-.53.24-7.89,2.84-15.72,4.95-23.99,6.39-1.73.26-1.06.17,2-.27-1.06.12-2.13.23-3.19.32-2.13.18-4.27.31-6.41.37-4.01.12-8.02.02-12.02-.3-.8-.06-1.6-.13-2.4-.21-2.53-.29-2.13-.22,1.21.22-1.91.15-4.44-.72-6.32-1.11-4.2-.87-8.31-2.02-12.38-3.36-11.18-3.7-25.07,4.28-27.68,15.71-2.82,12.4,3.74,23.72,15.71,27.68h0Z"/>
  <path class="cls-2" d="M449.33,422.18c33.13,24.68,74.56,37.83,115.77,38.16,11.77.1,23.04-10.42,22.5-22.5s-9.88-22.4-22.5-22.5c-4.53-.04-9.05-.21-13.56-.58-2.16-.18-4.66-.14-6.75-.69,6.14,1.62-1.07-.2-2.41-.43-8.92-1.54-17.73-3.76-26.31-6.65-2.15-.72-4.28-1.48-6.39-2.29-1.11-.42-8.25-2.76-2.49-.93-4.19-1.33-8.35-3.84-12.23-5.89-8.01-4.25-15.63-9.13-22.9-14.55-9.48-7.06-25.54-1.86-30.78,8.07-6.23,11.78-2.04,23.25,8.07,30.78h0Z"/>
</svg>