<svg width="26" height="32" viewBox="0 0 26 32" fill="none" xmlns="http://www.w3.org/2000/svg">
<path d="M5.72 0.00854991C5.72 0.00854991 14.391 -0.520448 13.585 6.74359C13.585 6.74359 14.8265 1.91165 20.28 4.12441C20.28 4.12441 19.1295 8.89829 14.56 7.73707C14.56 7.73707 15.509 4.21473 18.8565 4.0857C18.8565 4.0857 16.263 3.42123 13.52 7.23388C13.52 7.23388 12.233 1.13751 7.436 0.802046C7.436 0.802046 12.324 2.05358 12.48 7.73707C12.48 7.74353 5.564 8.18866 5.72 0.00854991ZM26 20.3685C26 23.4973 25.3695 26.5165 23.92 28.9034C21.177 30.8968 17.095 32 13 32C8.9115 32 4.823 30.8968 2.08 28.9034C0.6305 26.5165 0 23.4973 0 20.3685C0 17.2461 1.1505 14.2592 2.6 11.8723C5.343 9.87887 8.9115 8.73701 13 8.73701C17.095 8.73701 20.657 9.87242 23.4 11.8723C24.8495 14.2592 26 17.2461 26 20.3685ZM7.8 27.0971C7.8 26.0972 6.9875 25.2908 5.98 25.2908C4.9725 25.2908 4.16 26.0972 4.16 27.0971C4.16 28.097 4.9725 28.9034 5.98 28.9034C6.9875 28.9034 7.8 28.097 7.8 27.0971ZM7.8 22.8264C7.8 21.8265 6.9875 21.0201 5.98 21.0201C4.9725 21.0201 4.16 21.8265 4.16 22.8264C4.16 23.8263 4.9725 24.6327 5.98 24.6327C6.9875 24.6327 7.8 23.8263 7.8 22.8264ZM7.8 18.5557C7.8 17.5558 6.9875 16.7494 5.98 16.7494C4.9725 16.7494 4.16 17.5558 4.16 18.5557C4.16 19.5557 4.9725 20.3621 5.98 20.3621C6.9875 20.3621 7.8 19.5557 7.8 18.5557ZM12.48 27.0971C12.48 26.0972 11.6675 25.2908 10.66 25.2908C9.6525 25.2908 8.84 26.0972 8.84 27.0971C8.84 28.097 9.6525 28.9034 10.66 28.9034C11.6675 28.9034 12.48 28.097 12.48 27.0971ZM12.48 22.8264C12.48 21.8265 11.6675 21.0201 10.66 21.0201C9.6525 21.0201 8.84 21.8265 8.84 22.8264C8.84 23.8263 9.6525 24.6327 10.66 24.6327C11.6675 24.6327 12.48 23.8263 12.48 22.8264ZM12.48 18.5557C12.48 17.5558 11.6675 16.7494 10.66 16.7494C9.6525 16.7494 8.84 17.5558 8.84 18.5557C8.84 19.5557 9.6525 20.3621 10.66 20.3621C11.6675 20.3621 12.48 19.5557 12.48 18.5557ZM17.16 27.0971C17.16 26.0972 16.3475 25.2908 15.34 25.2908C14.3325 25.2908 13.52 26.0972 13.52 27.0971C13.52 28.097 14.3325 28.9034 15.34 28.9034C16.3475 28.9034 17.16 28.097 17.16 27.0971ZM17.16 22.8264C17.16 21.8265 16.3475 21.0201 15.34 21.0201C14.3325 21.0201 13.52 21.8265 13.52 22.8264C13.52 23.8263 14.3325 24.6327 15.34 24.6327C16.3475 24.6327 17.16 23.8263 17.16 22.8264ZM17.16 18.5557C17.16 17.5558 16.3475 16.7494 15.34 16.7494C14.3325 16.7494 13.52 17.5558 13.52 18.5557C13.52 19.5557 14.3325 20.3621 15.34 20.3621C16.3475 20.3621 17.16 19.5557 17.16 18.5557ZM21.84 27.0971C21.84 26.0972 21.0275 25.2908 20.02 25.2908C19.0125 25.2908 18.2 26.0972 18.2 27.0971C18.2 28.097 19.0125 28.9034 20.02 28.9034C21.0275 28.9034 21.84 28.097 21.84 27.0971ZM21.84 22.8264C21.84 21.8265 21.0275 21.0201 20.02 21.0201C19.0125 21.0201 18.2 21.8265 18.2 22.8264C18.2 23.8263 19.0125 24.6327 20.02 24.6327C21.0275 24.6327 21.84 23.8263 21.84 22.8264ZM21.84 18.5557C21.84 17.5558 21.0275 16.7494 20.02 16.7494C19.0125 16.7494 18.2 17.5558 18.2 18.5557C18.2 19.5557 19.0125 20.3621 20.02 20.3621C21.0275 20.3621 21.84 19.5557 21.84 18.5557ZM23.4 16.001C23.088 14.5624 22.919 13.6206 22.36 12.3884C19.838 11.1046 16.4775 10.324 13 10.324C9.5225 10.324 6.162 11.1046 3.64 12.3884C3.068 13.6464 2.912 14.5753 2.6 16.001C5.343 15.4914 9.0155 15.0463 13 15.0463C16.9845 15.0463 20.657 15.4914 23.4 16.001Z" fill="black"/>
</svg>
