<svg width="26" height="32" viewBox="0 0 26 32" fill="none" xmlns="http://www.w3.org/2000/svg">
<path d="M11.0042 17.9708L18.8417 10.1333L16.5854 7.87708L11.0042 13.4583L8.7875 11.2417L6.53125 13.4979L11.0042 17.9708ZM12.6667 31.6667C8.41805 28.0514 5.24506 24.6937 3.14767 21.5935C1.05028 18.4933 0.00105556 15.6233 0 12.9833C0 9.025 1.27353 5.87153 3.82058 3.52292C6.36764 1.17431 9.31633 0 12.6667 0C16.017 0 18.9662 1.17431 21.5143 3.52292C24.0624 5.87153 25.3354 9.025 25.3333 12.9833C25.3333 15.6222 24.2846 18.4923 22.1873 21.5935C20.0899 24.6947 16.9163 28.0524 12.6667 31.6667Z" fill="#FEDA7A"/>
</svg>
