<svg width="26" height="27" viewBox="0 0 26 27" fill="none" xmlns="http://www.w3.org/2000/svg">
<path d="M12.3082 16.2C12.6956 16.2 13.0207 16.0704 13.2832 15.8112C13.5458 15.552 13.6767 15.2316 13.6757 14.85V8.1C13.6757 7.7175 13.5445 7.3971 13.2819 7.1388C13.0193 6.8805 12.6947 6.7509 12.3082 6.75C11.9216 6.7491 11.597 6.8787 11.3345 7.1388C11.0719 7.3989 10.9406 7.7193 10.9406 8.1V14.85C10.9406 15.2325 11.0719 15.5533 11.3345 15.8125C11.597 16.0717 11.9216 16.2009 12.3082 16.2ZM16.4109 14.175C16.7984 14.175 17.1234 14.0454 17.386 13.7862C17.6485 13.527 17.7794 13.2066 17.7785 12.825V9.45C17.7785 9.0675 17.6472 8.7471 17.3846 8.4888C17.122 8.2305 16.7975 8.1009 16.4109 8.1C16.0243 8.0991 15.6998 8.2287 15.4372 8.4888C15.1746 8.7489 15.0433 9.0693 15.0433 9.45V12.825C15.0433 13.2075 15.1746 13.5283 15.4372 13.7875C15.6998 14.0467 16.0243 14.1759 16.4109 14.175ZM8.20545 13.5C8.59293 13.5 8.91795 13.3704 9.18053 13.1112C9.4431 12.852 9.57393 12.5316 9.57302 12.15V9.45C9.57302 9.0675 9.44173 8.7471 9.17916 8.4888C8.91658 8.2305 8.59201 8.1009 8.20545 8.1C7.81888 8.0991 7.49431 8.2287 7.23173 8.4888C6.96916 8.7489 6.83787 9.0693 6.83787 9.45V12.15C6.83787 12.5325 6.96916 12.8533 7.23173 13.1125C7.49431 13.3717 7.81888 13.5009 8.20545 13.5ZM5.4703 27C5.08282 27 4.75825 26.8704 4.49658 26.6112C4.23492 26.352 4.10363 26.0316 4.10272 25.65V21.195C2.80353 20.025 1.79517 18.6583 1.07765 17.095C0.360128 15.5317 0.000911716 13.8834 0 12.15C0 8.775 1.19663 5.90625 3.58988 3.54375C5.98314 1.18125 8.88923 0 12.3082 0C15.1573 0 17.6818 0.8271 19.8818 2.4813C22.0818 4.1355 23.5118 6.28965 24.1719 8.94375L25.9497 15.8625C26.0637 16.29 25.9839 16.6783 25.7104 17.0275C25.4369 17.3767 25.0722 17.5509 24.6163 17.55H21.8812V21.6C21.8812 22.3425 21.6136 22.9783 21.0784 23.5075C20.5432 24.0367 19.8991 24.3009 19.146 24.3H16.4109V25.65C16.4109 26.0325 16.2796 26.3533 16.017 26.6125C15.7545 26.8717 15.4299 27.0009 15.0433 27H5.4703Z" fill="black"/>
</svg>
